<?xml version="1.0" encoding="utf-8"?>
<!-- Generator: Adobe Illustrator 28.0.0, SVG Export Plug-In . SVG Version: 6.00 Build 0)  -->
<svg version="1.1" xmlns="http://www.w3.org/2000/svg" xmlns:xlink="http://www.w3.org/1999/xlink" x="0px" y="0px"
	 viewBox="0 0 1849.7 158.12" style="enable-background:new 0 0 1849.7 158.12;" xml:space="preserve">
<style type="text/css">
	.st0{display:none;}
	.st1{display:inline;opacity:0.71;fill:#ED1C24;}
	.st2{display:inline;fill:#ED1C24;}
	.st3{display:inline;fill:#8B181B;}
	.st4{fill:#FFFFFF;}
	.st5{fill:#FFFFFF;stroke:#072B49;stroke-width:5;stroke-miterlimit:10;}
</style>
<g id="Layer_1" class="st0">
</g>
<g id="Layer_3" class="st0">
</g>
<g id="Layer_2">
	<path class="st4" d="M1726.38,27.22c-41.1,13.88-82.21-13.88-123.31,0s-82.21-13.88-123.31,0c-41.1,13.88-82.21-13.88-123.31,0
		s-82.21-13.88-123.31,0c-41.1,13.88-82.21-13.88-123.31,0s-82.21-13.88-123.31,0s-82.21-13.88-123.31,0
		c-41.1,13.88-82.21-13.88-123.31,0s-82.21-13.88-123.31,0c-41.1,13.88-82.21-13.88-123.31,0s-82.21-13.88-123.31,0
		s-82.21-13.88-123.31,0c-41.1,13.88-82.21-13.88-123.31,0S41.1,13.34,0,27.22c0,3.34,0,6.67,0,10.01c0,1.2,0,2.4,0,3.6
		c0,2.14,0,4.27,0,6.41c0,1.2,0,2.4,0,3.6c0,2.14,0,4.27,0,6.41c0,1.2,0,2.4,0,3.6c0,2.14,0,4.27,0,6.41c0,1.2,0,2.4,0,3.6
		c0,2.14,0,4.27,0,6.41c0,1.2,0,2.4,0,3.6c0,2.14,0,4.27,0,6.41c0,1.2,0,2.4,0,3.6c0,2.14,0,4.27,0,6.41c0,1.2,0,2.4,0,3.6
		c0,2.14,0,4.27,0,6.41c0,1.2,0,2.4,0,3.6c0,2.14,0,4.27,0,6.41c0,1.2,0,2.4,0,3.6c0,2.14,0,4.27,0,6.41c0,1.2,0,2.4,0,3.6
		c0,2.14,0,4.27,0,6.41c0,1.2,0,2.4,0,3.6c0,2.14,0,4.27,0,6.41c0,1.2,0,2.4,0,3.6c0,2.14,0,4.27,0,6.41c0,1.2,0,2.4,0,3.6
		c0,2.14,0,4.27,0,6.41c0,1.2,0,2.4,0,3.6c0,3.34,0,6.67,0,10.01c41.1-13.88,82.21,13.88,123.31,0s82.21,13.88,123.31,0
		c41.1-13.88,82.21,13.88,123.31,0s82.21,13.88,123.31,0s82.21,13.88,123.31,0c41.1-13.88,82.21,13.88,123.31,0
		s82.21,13.88,123.31,0c41.1-13.88,82.21,13.88,123.31,0s82.21,13.88,123.31,0s82.21,13.88,123.31,0
		c41.1-13.88,82.21,13.88,123.31,0s82.21,13.88,123.31,0c41.1-13.88,82.21,13.88,123.31,0s82.21,13.88,123.31,0
		s82.21,13.88,123.31,0c0-3.34,0-6.67,0-10.01c0-1.2,0-2.4,0-3.6c0-2.14,0-4.27,0-6.41c0-1.2,0-2.4,0-3.6c0-2.14,0-4.27,0-6.41
		c0-1.2,0-2.4,0-3.6c0-2.14,0-4.27,0-6.41c0-1.2,0-2.4,0-3.6c0-2.14,0-4.27,0-6.41c0-1.2,0-2.4,0-3.6c0-2.14,0-4.27,0-6.41
		c0-1.2,0-2.4,0-3.6c0-2.14,0-4.27,0-6.41c0-1.2,0-2.4,0-3.6c0-2.14,0-4.27,0-6.41c0-1.2,0-2.4,0-3.6c0-2.14,0-4.27,0-6.41
		c0-1.2,0-2.4,0-3.6c0-2.14,0-4.27,0-6.41c0-1.2,0-2.4,0-3.6c0-2.14,0-4.27,0-6.41c0-1.2,0-2.4,0-3.6c0-2.14,0-4.27,0-6.41
		c0-1.2,0-2.4,0-3.6c0-2.14,0-4.27,0-6.41c0-1.2,0-2.4,0-3.6c0-2.14,0-4.27,0-6.41c0-1.2,0-2.4,0-3.6c0-3.34,0-6.67,0-10.01
		C1808.59,41.1,1767.49,13.34,1726.38,27.22z"/>
</g>
</svg>
