<?xml version="1.0" encoding="utf-8"?>
<!-- Generator: Adobe Illustrator 28.0.0, SVG Export Plug-In . SVG Version: 6.00 Build 0)  -->
<svg version="1.1" id="Layer_1" xmlns="http://www.w3.org/2000/svg" xmlns:xlink="http://www.w3.org/1999/xlink" x="0px" y="0px"
	 viewBox="0 0 216 216" style="enable-background:new 0 0 216 216;" xml:space="preserve">
<style type="text/css">
	.st0{fill:#FFFFFF;}
</style>
<g>
	<path class="st0" d="M158.75,5h-33.84H91.08H57.25H24.96c-0.85,0-1.55,0.69-1.55,1.55v32.29v33.84v33.84v33.84v32.29
		c0,0.85,0.69,1.55,1.55,1.55h32.29h33.84h33.84h33.84h32.29c0.85,0,1.55-0.69,1.55-1.55v-32.29v-33.84V72.67V38.84V6.55
		c0-0.85-0.69-1.55-1.55-1.55H158.75z M158.75,56.39v14.73c0,0.85-0.69,1.55-1.55,1.55h-47.66c-0.85,0-1.55,0.69-1.55,1.55v30.74
		c0,0.85,0.69,1.55,1.55,1.55h47.66c0.85,0,1.55,0.69,1.55,1.55v14.73c0,0.41-0.16,0.8-0.45,1.09l-16.01,16.01
		c-0.29,0.29-0.68,0.45-1.09,0.45h-16.28H91.08H74.81c-0.41,0-0.8-0.16-1.09-0.45L57.7,123.88c-0.29-0.29-0.45-0.68-0.45-1.09
		v-16.28V72.67V56.39c0-0.41,0.16-0.8,0.45-1.09l16.01-16.01C74,39,74.4,38.84,74.81,38.84h16.28h33.84h16.28
		c0.41,0,0.8,0.16,1.09,0.45L158.3,55.3C158.59,55.59,158.75,55.98,158.75,56.39z"/>
	<g>
		<path class="st0" d="M29.99,189.35v4.36h-1.96v-2.41h-2.66v17.06h2.66v-4.14h1.96v6.1h-6.57v-20.98H29.99z"/>
		<path class="st0" d="M34.59,210.33v-20.98h6.57v20.98H34.59z M36.55,208.38h2.66v-17.06h-2.66V208.38z"/>
		<path class="st0" d="M45.91,210.33v-20.98h6.57v4.36h-1.96v-2.41h-2.66v6.13h2.43v1.96h-2.43v10.94H45.91z"/>
		<path class="st0" d="M57.24,210.33v-20.98h6.57v4.36h-1.96v-2.41H59.2v6.13h2.43v1.96H59.2v10.94H57.24z"/>
		<path class="st0" d="M75.11,189.35v4.36h-1.96v-2.41h-2.63v6.13h2.43v1.96h-2.43v8.98h2.66v-4.14h1.96v6.1h-6.57v-20.98H75.11z"/>
		<path class="st0" d="M86.43,189.35v4.36h-1.96v-2.41h-2.63v6.13h2.43v1.96h-2.43v8.98h2.66v-4.14h1.96v6.1h-6.57v-20.98H86.43z"/>
		<path class="st0" d="M106.03,189.35v4.36h-1.96v-2.41h-2.66v4.39l4.62,4.62v10.02h-6.57v-6.1h1.96v4.14h2.66v-7.25l-4.62-4.62
			v-7.16"/>
		<path class="st0" d="M113.1,210.33v-11.47l-2.32-2.35v-7.16h1.96v6.38l1.31,1.31l1.34-1.34v-6.35h1.96v7.16l-2.29,2.29v11.53
			H113.1z"/>
		<path class="st0" d="M126.72,210.33v-9.2l-2.66-2.66v11.86h-1.96v-20.98h1.96v6.35l2.66,2.66v-9.01h1.96v20.98H126.72z"/>
		<path class="st0" d="M140.14,189.35v18.04l-2.94,2.94h-3.64v-20.98H140.14z M135.53,208.38h0.87l1.79-1.76v-15.3h-2.66V208.38z"/>
		<path class="st0" d="M147.97,189.35v1.96h-0.84v17.06h0.84v1.96h-3.64v-1.96h0.84v-17.06h-0.84v-1.96H147.97z"/>
		<path class="st0" d="M159.01,189.35v4.36h-1.96v-2.41h-2.66v17.06h2.66v-4.14h1.96v6.1h-6.57v-20.98H159.01z"/>
		<path class="st0" d="M167.96,210.33V199.4h-2.66v10.94h-1.96v-18.04l2.94-2.94h3.64v20.98H167.96z M167.96,191.31h-0.9l-1.76,1.76
			v4.36h2.66V191.31z"/>
		<path class="st0" d="M176.99,210.33v-19.02h-1.06v2.41h-1.82v-4.36h7.72v4.36h-1.82v-2.41h-1.06v19.02H176.99z"/>
		<path class="st0" d="M192.56,189.35v4.36h-1.96v-2.41h-2.63v6.13h2.43v1.96h-2.43v8.98h2.66v-4.14h1.96v6.1h-6.57v-20.98H192.56z"
			/>
	</g>
</g>
</svg>
