<?xml version="1.0" encoding="utf-8"?>
<!-- Generator: Adobe Illustrator 28.0.0, SVG Export Plug-In . SVG Version: 6.00 Build 0)  -->
<svg version="1.1" id="Layer_1" xmlns="http://www.w3.org/2000/svg" xmlns:xlink="http://www.w3.org/1999/xlink" x="0px" y="0px"
	 viewBox="0 0 547.2 216" style="enable-background:new 0 0 547.2 216;" xml:space="preserve">
<style type="text/css">
	.st0{fill:none;}
	.st1{fill:#002B49;}
</style>
<path class="st0" d="M469.8,93.9L443.9,79c-0.3-0.1-0.5-0.2-0.8-0.2s-0.6,0.1-0.8,0.2l-8.4,4.8l-2.4,1.4l-2.4,1.4L418,93l-2.4,1.4
	v2.8v28c0,0.6,0.3,1.1,0.8,1.4l25.9,14.9c0.3,0.1,0.5,0.2,0.8,0.2s0.6-0.1,0.8-0.2l8.4-4.8l2.4-1.4l2.4-1.4l11.1-6.4l2.4-1.4v-2.8
	v-28C470.6,94.7,470.3,94.2,469.8,93.9z"/>
<path class="st0" d="M130.9,47.6L105,32.7c-0.3-0.1-0.5-0.2-0.8-0.2s-0.6,0.1-0.8,0.2L95,37.5l-2.4,1.4l-2.4,1.4l-11.1,6.4l-2.4,1.4
	v2.8v28c0,0.6,0.3,1.1,0.8,1.4l25.8,14.9c0.3,0.1,0.5,0.2,0.8,0.2s0.6-0.1,0.8-0.2l8.4-4.8l2.4-1.4l2.4-1.4l11.1-6.4l2.4-1.4V77h0.1
	V49C131.7,48.4,131.4,47.9,130.9,47.6z"/>
<path class="st1" d="M140.9,86.6c0.1-0.1,0.8-0.3,0.8-1.2v-2v-1.5c0-0.4,0.1-0.7,0.4-0.9l4.7-4.7c0.3-0.3,0.6-0.4,0.9-0.4H228
	c0.4,0,0.7,0.1,0.9,0.4l4.8,4.8c0.1,0.1,0.3,0.2,0.4,0.3c-0.1-0.2-0.2-0.4-0.2-0.7l-5.4-28.8l0,0H148c-0.4,0-0.7-0.1-0.9-0.4
	l-4.8-4.8c-0.3-0.3-0.4-0.6-0.4-0.9v-3.1c0-0.6-0.3-1.1-0.8-1.4l-37-21.2c-0.4-0.2-0.5-0.2-0.8-0.2s-0.6,0.1-0.8,0.2L83,31.1
	l-1.3,0.7l-12.2,7.1c0,0-0.5,0.3-0.6,0.3l-3.5,2c-0.2,0.1-0.8,0.4-0.8,1.3v2v40.8c0,0.6,0.3,1.1,0.8,1.4l36.9,21.3
	c0.3,0.2,0.5,0.2,0.8,0.2s0.6-0.1,0.8-0.2l19.4-11.2l1.3-0.7l12.2-7.1 M130.7,77L130.7,77l-0.1,2.1c0,0.5-0.3,0.9-0.7,1.1l-1.8,1
	l-11.1,6.4l-2.4,1.4l-2.4,1.4l-8.4,4.8c-0.2,0.1-0.5,0.2-0.8,0.2s-0.5-0.1-0.8-0.2L76.5,80.3c-0.5-0.3-0.8-0.8-0.8-1.4v-28v-2
	c0-0.5,0.3-0.9,0.7-1.2l1.7-1l11.1-6.4l2.4-1.4l2.4-1.4l8.4-4.8c0.2-0.1,0.5-0.2,0.8-0.2s0.5,0.1,0.8,0.2l25.9,14.9
	c0.5,0.3,0.8,0.8,0.8,1.4L130.7,77L130.7,77z"/>
<path class="st0" d="M471,93.9L445.2,79c-0.3-0.1-0.5-0.2-0.8-0.2s-0.6,0.1-0.8,0.2l-8.4,4.8l-2.4,1.4l-2.4,1.4L419.3,93l-1.8,1
	c-0.4,0.2-0.6,0.6-0.7,1.1l-0.1,2.1h0v28c0,0.6,0.3,1.1,0.8,1.4l25.9,14.9c0.3,0.1,0.5,0.2,0.8,0.2c0.3,0,0.6-0.1,0.8-0.2l8.4-4.8
	l2.4-1.4l2.4-1.4l11.1-6.4l1.7-1c0.4-0.2,0.7-0.7,0.7-1.2v-2v-28C471.8,94.7,471.5,94.2,471,93.9z"/>
<path class="st1" d="M481.6,87.5l-36.9-21.3c-0.3-0.2-0.5-0.2-0.8-0.2s-0.6,0.1-0.8,0.2l-19.4,11.2l-1.3,0.7l-12.2,7.1l-4.1,2.4
	c-0.1,0.1-0.8,0.3-0.8,1.2v2v1.5c0,0.4-0.1,0.7-0.4,0.9l-4.7,4.7c-0.3,0.3-0.6,0.4-0.9,0.4H319c-0.4,0-0.7-0.1-0.9-0.4l-4.4-4.4v3.4
	l4.7,25.3h80.6c0.4,0,0.7,0.1,0.9,0.4l4.8,4.8c0.3,0.3,0.4,0.6,0.4,0.9v3.1c0,0.6,0.3,1.1,0.8,1.4l37,21.2c0.4,0.2,0.5,0.2,0.8,0.2
	c0.3,0,0.6-0.1,0.8-0.2l19.4-11.2l1.3-0.7l12.2-7.1c0,0,0.5-0.3,0.6-0.3l3.5-2c0.2-0.1,0.8-0.4,0.8-1.3v-2V88.9
	C482.4,88.3,482.1,87.8,481.6,87.5z M471.3,123.3v2c0,0.5-0.3,0.9-0.7,1.2l-1.7,1l-11.1,6.4l-2.4,1.4l-2.4,1.4l-8.4,4.8
	c-0.2,0.1-0.5,0.2-0.8,0.2c-0.3,0-0.5-0.1-0.8-0.2l-25.9-14.9c-0.5-0.3-0.8-0.8-0.8-1.4v-28h0l0.1-2.1c0-0.5,0.3-0.9,0.7-1.1l1.8-1
	l11.1-6.4l2.4-1.4l2.4-1.4l8.4-4.8c0.2-0.1,0.5-0.2,0.8-0.2s0.5,0.1,0.8,0.2l25.8,14.9c0.5,0.3,0.8,0.8,0.8,1.4V123.3z"/>
</svg>
