<?xml version="1.0" encoding="utf-8"?>
<!-- Generator: Adobe Illustrator 28.0.0, SVG Export Plug-In . SVG Version: 6.00 Build 0)  -->
<svg version="1.1" id="Layer_1" xmlns="http://www.w3.org/2000/svg" xmlns:xlink="http://www.w3.org/1999/xlink" x="0px" y="0px"
	 viewBox="0 0 547.2 216" style="enable-background:new 0 0 547.2 216;" xml:space="preserve">
<style type="text/css">
	.st0{fill:none;}
</style>
<path d="M480.8,87.5l-36.9-21.3c-0.3-0.2-0.5-0.2-0.8-0.2c-0.3,0-0.6,0.1-0.8,0.2l-19.4,11.2l-1.3,0.7l-12.2,7.1c0,0,0,0-0.1,0
	l-4,2.4c-0.2,0-0.8,0.3-0.8,1.2v2v2.1l-5.5,5.5h-81.4L307.1,88v14.5h1.1v15.8h-1.1v14.5l10.5-10.5h81.2l5.6,5.6v3.7
	c0,0.6,0.3,1.1,0.8,1.4l36.9,21.3c0.3,0.2,0.5,0.2,0.8,0.2c0.3,0,0.6-0.1,0.8-0.2l19.4-11.2l1.3-0.7l12.2-7.1c0,0,0,0,0.1,0l4-2.4
	c0.2,0,0.8-0.3,0.8-1.2v-2V88.9C481.6,88.3,481.3,87.8,480.8,87.5z M442.3,141.5l-25.9-14.9c-0.5-0.3-0.8-0.8-0.8-1.4v-28v-2.8
	L418,93l11.1-6.4l2.4-1.4l2.4-1.4l8.4-4.8c0.2-0.1,0.5-0.2,0.8-0.2c0.3,0,0.5,0.1,0.8,0.2l25.9,14.9c0.5,0.3,0.8,0.8,0.8,1.4v28v2.8
	l-2.4,1.4l-11.1,6.4l-2.4,1.4l-2.4,1.4l-8.4,4.8c-0.2,0.1-0.5,0.2-0.8,0.2C442.8,141.7,442.6,141.6,442.3,141.5z"/>
<path class="st0" d="M130.8,47.6l-25.9-14.9c-0.2-0.1-0.5-0.2-0.8-0.2c-0.3,0-0.5,0.1-0.8,0.2L95,37.5l-2.4,1.4l-2.4,1.4l-11.1,6.4
	l-2.4,1.4v2.8v28c0,0.6,0.3,1.1,0.8,1.4l25.9,14.9c0.2,0.1,0.5,0.2,0.8,0.2c0.3,0,0.5-0.1,0.8-0.2l8.4-4.8l2.4-1.4l2.4-1.4l11.1-6.4
	l2.4-1.4V77V49C131.6,48.4,131.3,47.9,130.8,47.6z"/>
<path d="M236.9,81.5l3.2-2v-7.8H239V55.9h1.1V41.3l-10.5,10.5h-81.2l-5.6-5.6v-3.7c0-0.6-0.3-1.1-0.8-1.4L105,19.9
	c-0.3-0.2-0.5-0.2-0.8-0.2c-0.3,0-0.6,0.1-0.8,0.2L84,31.1l-1.3,0.7l-12.2,7.1c0,0,0,0-0.1,0l-4,2.4c-0.2,0-0.8,0.3-0.8,1.2v2v40.8
	c0,0.6,0.3,1.1,0.8,1.4l36.9,21.3c0.3,0.2,0.5,0.2,0.8,0.2c0.3,0,0.6-0.1,0.8-0.2l19.4-11.2l1.3-0.7l12.2-7.1c0,0,0,0,0.1,0l4-2.4
	c0.2,0,0.8-0.3,0.8-1.2v-2v-2.1l5.5-5.5h81.4l5.2,5.2C235.7,81.8,236.9,81.5,236.9,81.5z M131.6,77v2.8l-2.4,1.4l-11.1,6.4l-2.4,1.4
	l-2.4,1.4l-8.4,4.8c-0.2,0.1-0.5,0.2-0.8,0.2c-0.3,0-0.5-0.1-0.8-0.2L77.5,80.3c-0.5-0.3-0.8-0.8-0.8-1.4v-28v-2.8l2.4-1.4l11.1-6.4
	l2.4-1.4l2.4-1.4l8.4-4.8c0.2-0.1,0.5-0.2,0.8-0.2c0.3,0,0.5,0.1,0.8,0.2l25.9,14.9c0.5,0.3,0.8,0.8,0.8,1.4V77z"/>
</svg>
