<?xml version="1.0" encoding="utf-8"?>
<!-- Generator: Adobe Illustrator 28.0.0, SVG Export Plug-In . SVG Version: 6.00 Build 0)  -->
<svg version="1.1" id="Layer_1" xmlns="http://www.w3.org/2000/svg" xmlns:xlink="http://www.w3.org/1999/xlink" x="0px" y="0px"
	 viewBox="0 0 216 216" style="enable-background:new 0 0 216 216;" xml:space="preserve">
<style type="text/css">
	.st0{fill:#FFFFFF;}
</style>
<g>
	<path class="st0" d="M14.9,187v5.2h-2.3v-2.9H9.3v20.4h3.2v-5h2.3v7.3H7V187H14.9z"/>
	<path class="st0" d="M20.4,212.1V187h7.9v25.1H20.4z M22.7,209.8h3.2v-20.4h-3.2V209.8z"/>
	<path class="st0" d="M33.9,212.1V187h7.9v5.2h-2.3v-2.9h-3.2v7.3h2.9v2.3h-2.9v13.1H33.9z"/>
	<path class="st0" d="M47.5,212.1V187h7.9v5.2H53v-2.9h-3.2v7.3h2.9v2.3h-2.9v13.1H47.5z"/>
	<path class="st0" d="M68.9,187v5.2h-2.3v-2.9h-3.1v7.3h2.9v2.3h-2.9v10.7h3.2v-5h2.3v7.3H61V187H68.9z"/>
	<path class="st0" d="M82.4,187v5.2h-2.3v-2.9h-3.1v7.3h2.9v2.3h-2.9v10.7h3.2v-5h2.3v7.3h-7.9V187H82.4z"/>
	<path class="st0" d="M105.9,187v5.2h-2.3v-2.9h-3.2v5.3l5.5,5.5v12H98v-7.3h2.3v5h3.2v-8.7l-5.5-5.5V187"/>
	<path class="st0" d="M114.4,212.1v-13.7l-2.8-2.8V187h2.3v7.6l1.6,1.6l1.6-1.6V187h2.3v8.6l-2.7,2.7v13.8H114.4z"/>
	<path class="st0" d="M130.7,212.1v-11l-3.2-3.2v14.2h-2.3V187h2.3v7.6l3.2,3.2V187h2.3v25.1H130.7z"/>
	<path class="st0" d="M146.7,187v21.6l-3.5,3.5h-4.4V187H146.7z M141.2,209.8h1l2.1-2.1v-18.3h-3.2V209.8z"/>
	<path class="st0" d="M156.1,187v2.3h-1v20.4h1v2.3h-4.4v-2.3h1v-20.4h-1V187H156.1z"/>
	<path class="st0" d="M169.3,187v5.2H167v-2.9h-3.2v20.4h3.2v-5h2.3v7.3h-7.9V187H169.3z"/>
	<path class="st0" d="M180,212.1v-13.1h-3.2v13.1h-2.3v-21.6l3.5-3.5h4.4v25.1H180z M180,189.4H179l-2.1,2.1v5.2h3.2V189.4z"/>
	<path class="st0" d="M190.8,212.1v-22.8h-1.3v2.9h-2.2V187h9.2v5.2h-2.2v-2.9h-1.3v22.8H190.8z"/>
	<path class="st0" d="M209.5,187v5.2h-2.3v-2.9H204v7.3h2.9v2.3H204v10.7h3.2v-5h2.3v7.3h-7.9V187H209.5z"/>
</g>
<g>
	<path class="st0" d="M90.5,111.9l17,9.8c0.5,0.3,1.1,0.3,1.6,0l17-9.8c1.1-0.6,1.1-2.2,0-2.8l-7.8-4.5c-0.5-0.3-1.1-0.3-1.6,0
		l-7.5,4.4c-0.5,0.3-1.1,0.3-1.6,0l-7.5-4.4c-0.5-0.3-1.1-0.3-1.6,0l-7.8,4.5C89.4,109.7,89.4,111.2,90.5,111.9z"/>
	<path class="st0" d="M81.6,61.3l25.9-14.9c0.5-0.3,1.1-0.3,1.6,0l23.4,13.5c0.5,0.3,1.1,0.3,1.6,0l7.8-4.5c1.1-0.6,1.1-2.2,0-2.8
		l-32.9-19c-0.5-0.3-1.1-0.3-1.6,0L70.5,54.9c-0.5,0.3-0.8,0.8-0.8,1.4v38c0,1.3,1.4,2,2.4,1.4l7.8-4.5c0.5-0.3,0.8-0.8,0.8-1.4
		V62.7C80.8,62.1,81.1,61.6,81.6,61.3z"/>
	<path class="st0" d="M146.8,103.5v2v40.8c0,0.6-0.3,1.1-0.8,1.4L109.1,169c-0.5,0.3-1.1,0.3-1.6,0l-32.9-19c-1.1-0.6-1.1-2.2,0-2.8
		l7.8-4.5c0.5-0.3,1.1-0.3,1.6,0l23.4,13.5c0.5,0.3,1.1,0.3,1.6,0l25.9-14.9c0.5-0.3,0.8-0.8,0.8-1.4v-28v-2.8l0,0l-2.4-1.4
		l-11.1-6.4l-2.4-1.4l-2.4-1.4l-8.4-4.8c-0.5-0.3-1.1-0.3-1.6,0l-8.4,4.8l-2.4,1.4l-2.4,1.4L84,107.2c-0.5,0.3-1.1,0.3-1.6,0
		l-7.8-4.5c-1.1-0.6-1.1-2.2,0-2.8l8.6-5l2.4-1.4l2.4-1.4l19.4-11.2c0.5-0.3,1.1-0.3,1.6,0l19.4,11.2l2.4,1.4l2.4,1.4l7.3,4.2
		l5.5,3.2C146.2,102.3,146.8,102.6,146.8,103.5z"/>
</g>
</svg>
