<?xml version="1.0" encoding="utf-8"?>
<!-- Generator: Adobe Illustrator 28.0.0, SVG Export Plug-In . SVG Version: 6.00 Build 0)  -->
<svg version="1.1" id="Layer_1" xmlns="http://www.w3.org/2000/svg" xmlns:xlink="http://www.w3.org/1999/xlink" x="0px" y="0px"
	 viewBox="0 0 216 216" style="enable-background:new 0 0 216 216;" xml:space="preserve">
<style type="text/css">
	.st0{fill:#FFFFFF;}
</style>
<g>
	<path class="st0" d="M14.9,167v5.2h-2.3v-2.9H9.3v20.4h3.2v-5h2.3v7.3H7v-25H14.9z"/>
	<path class="st0" d="M20.4,192.1V167h7.9v25.1H20.4z M22.7,189.8h3.2v-20.4h-3.2V189.8z"/>
	<path class="st0" d="M33.9,192.1V167h7.9v5.2h-2.3v-2.9h-3.2v7.3h2.9v2.3h-2.9V192L33.9,192.1L33.9,192.1z"/>
	<path class="st0" d="M47.5,192.1V167h7.9v5.2H53v-2.9h-3.2v7.3h2.9v2.3h-2.9V192L47.5,192.1L47.5,192.1z"/>
	<path class="st0" d="M68.9,167v5.2h-2.3v-2.9h-3.1v7.3h2.9v2.3h-2.9v10.7h3.2v-5H69v7.3h-8V167H68.9z"/>
	<path class="st0" d="M82.4,167v5.2h-2.3v-2.9H77v7.3h2.9v2.3H77v10.7h3.2v-5h2.3v7.3h-7.9V167H82.4z"/>
	<path class="st0" d="M105.9,167v5.2h-2.3v-2.9h-3.2v5.3l5.5,5.5v12H98v-7.3h2.3v5h3.2v-8.7l-5.5-5.5V167"/>
	<path class="st0" d="M114.4,192.1v-13.7l-2.8-2.8V167h2.3v7.6l1.6,1.6l1.6-1.6V167h2.3v8.6l-2.7,2.7v13.8H114.4z"/>
	<path class="st0" d="M130.7,192.1v-11l-3.2-3.2v14.2h-2.3V167h2.3v7.6l3.2,3.2V167h2.3v25.1H130.7z"/>
	<path class="st0" d="M146.7,167v21.6l-3.5,3.5h-4.4V167H146.7z M141.2,189.8h1l2.1-2.1v-18.3h-3.2L141.2,189.8L141.2,189.8z"/>
	<path class="st0" d="M156.1,167v2.3h-1v20.4h1v2.3h-4.4v-2.3h1v-20.4h-1V167H156.1z"/>
	<path class="st0" d="M169.3,167v5.2H167v-2.9h-3.2v20.4h3.2v-5h2.3v7.3h-7.9v-25H169.3z"/>
	<path class="st0" d="M180,192.1V179h-3.2v13.1h-2.3v-21.6l3.5-3.5h4.4v25.1H180z M180,169.4h-1l-2.1,2.1v5.2h3.2L180,169.4
		L180,169.4z"/>
	<path class="st0" d="M190.8,192.1v-22.8h-1.3v2.9h-2.2V167h9.2v5.2h-2.2v-2.9H193v22.8H190.8z"/>
	<path class="st0" d="M209.5,167v5.2h-2.3v-2.9H204v7.3h2.9v2.3H204v10.7h3.2v-5h2.3v7.3h-7.9V167H209.5z"/>
</g>
<g>
	<path class="st0" d="M90.5,91.9l17,9.8c0.5,0.3,1.1,0.3,1.6,0l17-9.8c1.1-0.6,1.1-2.2,0-2.8l-7.8-4.5c-0.5-0.3-1.1-0.3-1.6,0
		l-7.5,4.4c-0.5,0.3-1.1,0.3-1.6,0l-7.5-4.4c-0.5-0.3-1.1-0.3-1.6,0l-7.8,4.5C89.4,89.7,89.4,91.2,90.5,91.9z"/>
	<path class="st0" d="M81.6,41.3l25.9-14.9c0.5-0.3,1.1-0.3,1.6,0l23.4,13.5c0.5,0.3,1.1,0.3,1.6,0l7.8-4.5c1.1-0.6,1.1-2.2,0-2.8
		l-32.9-19c-0.5-0.3-1.1-0.3-1.6,0L70.5,34.9c-0.5,0.3-0.8,0.8-0.8,1.4v38c0,1.3,1.4,2,2.4,1.4l7.8-4.5c0.5-0.3,0.8-0.8,0.8-1.4
		V42.7C80.8,42.1,81.1,41.6,81.6,41.3z"/>
	<path class="st0" d="M146.8,83.5v2v40.8c0,0.6-0.3,1.1-0.8,1.4L109.1,149c-0.5,0.3-1.1,0.3-1.6,0l-32.9-19c-1.1-0.6-1.1-2.2,0-2.8
		l7.8-4.5c0.5-0.3,1.1-0.3,1.6,0l23.4,13.5c0.5,0.3,1.1,0.3,1.6,0l25.9-14.9c0.5-0.3,0.8-0.8,0.8-1.4v-28v-2.8l0,0l-2.4-1.4
		l-11.1-6.4l-2.4-1.4l-2.4-1.4l-8.4-4.8c-0.5-0.3-1.1-0.3-1.6,0L99,78.5l-2.4,1.4l-2.4,1.4L84,87.2c-0.5,0.3-1.1,0.3-1.6,0l-7.8-4.5
		c-1.1-0.6-1.1-2.2,0-2.8l8.6-5l2.4-1.4l2.4-1.4l19.4-11.2c0.5-0.3,1.1-0.3,1.6,0l19.4,11.2l2.4,1.4l2.4,1.4l7.3,4.2l5.5,3.2
		C146.2,82.3,146.8,82.6,146.8,83.5z"/>
</g>
<g>
	<path class="st0" d="M12.2,201v1c0,0.1,0,0.1-0.1,0.1h-0.9c-0.1,0-0.1,0-0.1-0.1v-0.4c0-0.2-0.1-0.4-0.4-0.4H8
		c-0.2,0-0.4,0.1-0.4,0.4v3.5c0,0.2,0.1,0.4,0.4,0.4h2.7c0.2,0,0.4-0.1,0.4-0.4v-0.4c0-0.1,0-0.1,0.1-0.1h0.9c0.1,0,0.1,0,0.1,0.1v1
		c0,0.6-0.3,0.9-0.9,0.9H7.4c-0.6,0-0.9-0.3-0.9-0.9V201c0-0.6,0.3-0.9,0.9-0.9h3.9C11.9,200.1,12.2,200.4,12.2,201z"/>
	<path class="st0" d="M13.8,205.7v-4.7c0-0.6,0.3-0.9,0.9-0.9h3.9c0.6,0,0.9,0.3,0.9,0.9v4.7c0,0.6-0.3,0.9-0.9,0.9h-3.9
		C14.1,206.6,13.8,206.3,13.8,205.7z M15.3,205.5H18c0.2,0,0.4-0.1,0.4-0.4v-3.7c0-0.2-0.1-0.4-0.4-0.4h-2.7c-0.2,0-0.4,0.1-0.4,0.4
		v3.7C14.9,205.4,15.1,205.5,15.3,205.5z"/>
	<path class="st0" d="M21.1,200.2c0-0.1,0-0.1,0.1-0.1h5.1c0.1,0,0.1,0,0.1,0.1v0.8c0,0.1-0.1,0.1-0.1,0.1h-4v1.6h3.2
		c0.1,0,0.1,0,0.1,0.1v0.8c0,0.1,0,0.1-0.1,0.1h-3.2v2.5c0,0.1,0,0.1-0.1,0.1h-0.9c-0.1,0-0.1,0-0.1-0.1V200.2z"/>
	<path class="st0" d="M28.1,200.2c0-0.1,0-0.1,0.1-0.1h5.1c0.1,0,0.1,0,0.1,0.1v0.8c0,0.1-0.1,0.1-0.1,0.1h-4v1.6h3.2
		c0.1,0,0.1,0,0.1,0.1v0.8c0,0.1,0,0.1-0.1,0.1h-3.2v2.5c0,0.1,0,0.1-0.1,0.1h-0.9c-0.1,0-0.1,0-0.1-0.1V200.2z"/>
	<path class="st0" d="M35,206.4v-6.1c0-0.1,0-0.1,0.1-0.1h5.1c0.1,0,0.1,0,0.1,0.1v0.8c0,0.1-0.1,0.1-0.1,0.1h-4v1.6h3.2
		c0.1,0,0.1,0,0.1,0.1v0.8c0,0.1,0,0.1-0.1,0.1h-3.2v1.6h4c0.1,0,0.1,0,0.1,0.1v0.8c0,0.1-0.1,0.1-0.1,0.1h-5.1
		C35,206.5,35,206.4,35,206.4z"/>
	<path class="st0" d="M41.9,206.4v-6.1c0-0.1,0-0.1,0.1-0.1h5.1c0.1,0,0.1,0,0.1,0.1v0.8c0,0.1-0.1,0.1-0.1,0.1h-4v1.6h3.2
		c0.1,0,0.1,0,0.1,0.1v0.8c0,0.1,0,0.1-0.1,0.1h-3.2v1.6h4c0.1,0,0.1,0,0.1,0.1v0.8c0,0.1-0.1,0.1-0.1,0.1H42
		C42,206.5,41.9,206.4,41.9,206.4z"/>
	<path class="st0" d="M51.6,206.4v-6.1c0-0.1,0-0.1,0.1-0.1h5.1c0.1,0,0.1,0,0.1,0.1v0.8c0,0.1-0.1,0.1-0.1,0.1h-4v1.6h3.2
		c0.1,0,0.1,0,0.1,0.1v0.8c0,0.1,0,0.1-0.1,0.1h-3.2v1.6h4c0.1,0,0.1,0,0.1,0.1v0.8c0,0.1-0.1,0.1-0.1,0.1h-5.1
		C51.6,206.5,51.6,206.4,51.6,206.4z"/>
	<path class="st0" d="M64.3,200.9v4.7c0,0.6-0.3,0.9-0.9,0.9h-1.4v0.1c0.2,0.1,0.3,0.1,0.3,0.2l0.2,0.3c0,0.1,0,0.2-0.1,0.2h-0.9
		c-0.1,0-0.1,0-0.2-0.1l-0.3-0.7h-1.6c-0.6,0-0.9-0.3-0.9-0.9v-4.7c0-0.6,0.3-0.9,0.9-0.9h3.9C63.9,200,64.3,200.4,64.3,200.9z
		 M63.1,201.5c0-0.2-0.1-0.4-0.4-0.4h-2.7c-0.2,0-0.4,0.1-0.4,0.4v3.7c0,0.2,0.1,0.4,0.4,0.4h2.7c0.2,0,0.4-0.1,0.4-0.4V201.5z"/>
	<path class="st0" d="M71.6,200.2v5.3c0,0.6-0.3,0.9-0.9,0.9h-3.9c-0.6,0-0.9-0.3-0.9-0.9v-5.3c0-0.1,0-0.1,0.1-0.1h0.9
		c0.1,0,0.1,0,0.1,0.1v4.8c0,0.2,0.1,0.4,0.4,0.4h2.7c0.2,0,0.4-0.1,0.4-0.4v-4.8c0-0.1,0-0.1,0.1-0.1h0.9
		C71.6,200.1,71.6,200.2,71.6,200.2z"/>
	<path class="st0" d="M73.4,200.1h0.9c0.1,0,0.1,0,0.1,0.1v6.1c0,0.1,0,0.1-0.1,0.1h-0.9c-0.1,0-0.1,0-0.1-0.1v-6.1
		C73.3,200.2,73.3,200.1,73.4,200.1z"/>
	<path class="st0" d="M76.1,200.2c0-0.1,0-0.1,0.1-0.1h4.7c0.6,0,0.9,0.3,0.9,0.9v2.9c0,0.6-0.3,0.9-0.9,0.9h-3.7v1.6
		c0,0.1,0,0.1-0.1,0.1h-0.9c-0.1,0-0.1,0-0.1-0.1V200.2z M80.3,203.8c0.2,0,0.4-0.1,0.4-0.4v-1.8c0-0.2-0.1-0.4-0.4-0.4h-3v2.6H80.3
		z"/>
	<path class="st0" d="M88.8,200.2c0-0.1,0.1-0.1,0.1-0.1h0.9c0.1,0,0.1,0,0.1,0.1v6.1c0,0.1,0,0.1-0.1,0.1h-0.9
		c-0.1,0-0.1,0-0.1-0.1v-4.3l-2.1,2.6l-2.1-2.6v4.3c0,0.1,0,0.1-0.1,0.1h-0.9c-0.1,0-0.1,0-0.1-0.1v-6.1c0-0.1,0-0.1,0.1-0.1h0.9
		c0.1,0,0.1,0,0.1,0.1l2.1,2.7L88.8,200.2z"/>
	<path class="st0" d="M91.6,206.4v-6.1c0-0.1,0-0.1,0.1-0.1h5.1c0.1,0,0.1,0,0.1,0.1v0.8c0,0.1-0.1,0.1-0.1,0.1h-4v1.6h3.2
		c0.1,0,0.1,0,0.1,0.1v0.8c0,0.1,0,0.1-0.1,0.1h-3.2v1.6h4c0.1,0,0.1,0,0.1,0.1v0.8c0,0.1-0.1,0.1-0.1,0.1h-5.1
		C91.6,206.5,91.6,206.4,91.6,206.4z"/>
	<path class="st0" d="M98.5,200.2c0-0.1,0-0.1,0.1-0.1h0.9c0.1,0,0.1,0,0.1,0.1l3.8,4.4v-4.4c0-0.1,0-0.1,0.1-0.1h0.9
		c0.1,0,0.1,0,0.1,0.1v6.1c0,0.1,0,0.1-0.1,0.1h-0.8c-0.1,0-0.1,0-0.2-0.1l-3.8-4.4v4.4c0,0.1,0,0.1-0.1,0.1h-0.9
		c-0.1,0-0.1,0-0.1-0.1V200.2z"/>
	<path class="st0" d="M106,200.2c0-0.1,0-0.1,0.1-0.1h5.3c0.1,0,0.1,0,0.1,0.1v0.9c0,0.1,0,0.1-0.1,0.1h-2.1v5.1
		c0,0.1,0,0.1-0.1,0.1h-0.9c-0.1,0-0.1-0.1-0.1-0.1v-5.1h-2.1c-0.1,0-0.1,0-0.1-0.1V200.2z"/>
	<path class="st0" d="M115.6,206.4v-0.8c0-0.1,0-0.1,0.1-0.1h3.6c0.2,0,0.4-0.1,0.4-0.4v-0.8c0-0.2-0.1-0.4-0.4-0.4h-2.8
		c-0.6,0-0.9-0.3-0.9-0.9V201c0-0.6,0.3-0.9,0.9-0.9h4.3c0.1,0,0.1,0,0.1,0.1v0.8c0,0.1,0,0.1-0.1,0.1h-3.6c-0.2,0-0.4,0.1-0.4,0.4
		v0.9c0,0.2,0.1,0.4,0.4,0.4h2.8c0.6,0,0.9,0.3,0.9,0.9v1.8c0,0.6-0.3,0.9-0.9,0.9h-4.3C115.6,206.5,115.6,206.4,115.6,206.4z"/>
	<path class="st0" d="M122.5,206.4V201c0-0.6,0.4-0.9,0.9-0.9h3.9c0.6,0,0.9,0.3,0.9,0.9v5.3c0,0.1,0,0.1-0.1,0.1h-0.9
		c-0.1,0-0.1,0-0.1-0.1V204h-3.4v2.4c0,0.1,0,0.1-0.1,0.1h-0.9C122.6,206.5,122.5,206.4,122.5,206.4z M127.1,203v-1.4
		c0-0.2-0.2-0.4-0.4-0.4h-2.6c-0.2,0-0.4,0.1-0.4,0.4v1.4H127.1z"/>
	<path class="st0" d="M131,200.1c0.1,0,0.1,0,0.1,0.1v5.2h3.5c0.1,0,0.1,0,0.1,0.1v0.8c0,0.1-0.1,0.1-0.1,0.1H130
		c-0.1,0-0.1,0-0.1-0.1v-6.1c0-0.1,0.1-0.1,0.1-0.1H131z"/>
	<path class="st0" d="M136.1,206.4v-6.1c0-0.1,0-0.1,0.1-0.1h5.1c0.1,0,0.1,0,0.1,0.1v0.8c0,0.1-0.1,0.1-0.1,0.1h-4v1.6h3.2
		c0.1,0,0.1,0,0.1,0.1v0.8c0,0.1,0,0.1-0.1,0.1h-3.2v1.6h4c0.1,0,0.1,0,0.1,0.1v0.8c0,0.1-0.1,0.1-0.1,0.1h-5.1
		C136.1,206.5,136.1,206.4,136.1,206.4z"/>
	<path class="st0" d="M143,206.4v-0.8c0-0.1,0-0.1,0.1-0.1h3.6c0.2,0,0.4-0.1,0.4-0.4v-0.8c0-0.2-0.1-0.4-0.4-0.4h-2.8
		c-0.6,0-0.9-0.3-0.9-0.9V201c0-0.6,0.3-0.9,0.9-0.9h4.3c0.1,0,0.1,0,0.1,0.1v0.8c0,0.1,0,0.1-0.1,0.1h-3.6c-0.2,0-0.4,0.1-0.4,0.4
		v0.9c0,0.2,0.1,0.4,0.4,0.4h2.8c0.6,0,0.9,0.3,0.9,0.9v1.8c0,0.6-0.3,0.9-0.9,0.9h-4.3C143,206.5,143,206.4,143,206.4z"/>
	<path class="st0" d="M165.5,206.4v-0.8c0-0.1,0-0.1,0.1-0.1h3.6c0.2,0,0.4-0.1,0.4-0.4v-0.8c0-0.2-0.1-0.4-0.4-0.4h-2.8
		c-0.6,0-0.9-0.3-0.9-0.9V201c0-0.6,0.3-0.9,0.9-0.9h4.3c0.1,0,0.1,0,0.1,0.1v0.8c0,0.1,0,0.1-0.1,0.1h-3.6c-0.2,0-0.4,0.1-0.4,0.4
		v0.9c0,0.2,0.1,0.4,0.4,0.4h2.8c0.6,0,0.9,0.3,0.9,0.9v1.8c0,0.6-0.3,0.9-0.9,0.9h-4.3C165.6,206.5,165.5,206.4,165.5,206.4z"/>
	<path class="st0" d="M172.4,206.4v-6.1c0-0.1,0-0.1,0.1-0.1h5.1c0.1,0,0.1,0,0.1,0.1v0.8c0,0.1-0.1,0.1-0.1,0.1h-4v1.6h3.2
		c0.1,0,0.1,0,0.1,0.1v0.8c0,0.1,0,0.1-0.1,0.1h-3.2v1.6h4c0.1,0,0.1,0,0.1,0.1v0.8c0,0.1-0.1,0.1-0.1,0.1h-5.1
		C172.5,206.5,172.4,206.4,172.4,206.4z"/>
	<path class="st0" d="M179.4,206.4v-6.1c0-0.1,0-0.1,0.1-0.1h4.7c0.6,0,0.9,0.3,0.9,0.9v1.5c0,0.6-0.3,0.9-0.9,0.9v0.1
		c0.6,0,0.9,0.3,0.9,0.9v1.9c0,0.1,0,0.1-0.1,0.1h-0.9c-0.1,0-0.1,0-0.1-0.1v-1.9c0-0.3-0.2-0.5-0.5-0.5h-2.9v2.4
		c0,0.1,0,0.1-0.1,0.1h-0.9C179.4,206.5,179.4,206.4,179.4,206.4z M183.5,203c0.3,0,0.5-0.2,0.5-0.5v-0.9c0-0.2-0.1-0.4-0.4-0.4h-3
		v1.8H183.5z"/>
	<path class="st0" d="M191.3,202.4v-2.2c0-0.1,0-0.1,0.1-0.1h0.9c0.1,0,0.1,0,0.1,0.1v2.6c0,0.1,0,0.1-0.1,0.1l-2.4,3.4
		c0,0.1-0.1,0.1-0.1,0.1h-0.6c-0.1,0-0.1,0-0.1-0.1l-2.4-3.4c0,0-0.1-0.1-0.1-0.1v-2.6c0-0.1,0-0.1,0.1-0.1h0.9c0.1,0,0.1,0,0.1,0.1
		v2.2l1.7,2.7L191.3,202.4z"/>
	<path class="st0" d="M194.2,200.1h0.9c0.1,0,0.1,0,0.1,0.1v6.1c0,0.1,0,0.1-0.1,0.1h-0.9c-0.1,0-0.1,0-0.1-0.1v-6.1
		C194.1,200.2,194.2,200.1,194.2,200.1z"/>
	<path class="st0" d="M202.7,201v1c0,0.1,0,0.1-0.1,0.1h-0.9c-0.1,0-0.1,0-0.1-0.1v-0.4c0-0.2-0.1-0.4-0.4-0.4h-2.7
		c-0.2,0-0.4,0.1-0.4,0.4v3.5c0,0.2,0.1,0.4,0.4,0.4h2.7c0.2,0,0.4-0.1,0.4-0.4v-0.4c0-0.1,0-0.1,0.1-0.1h0.9c0.1,0,0.1,0,0.1,0.1v1
		c0,0.6-0.3,0.9-0.9,0.9h-3.9c-0.6,0-0.9-0.3-0.9-0.9V201c0-0.6,0.3-0.9,0.9-0.9h3.9C202.4,200.1,202.7,200.4,202.7,201z"/>
	<path class="st0" d="M204.2,206.4v-6.1c0-0.1,0-0.1,0.1-0.1h5.1c0.1,0,0.1,0,0.1,0.1v0.8c0,0.1-0.1,0.1-0.1,0.1h-4v1.6h3.2
		c0.1,0,0.1,0,0.1,0.1v0.8c0,0.1,0,0.1-0.1,0.1h-3.2v1.6h4c0.1,0,0.1,0,0.1,0.1v0.8c0,0.1-0.1,0.1-0.1,0.1h-5.1
		C204.2,206.5,204.2,206.4,204.2,206.4z"/>
	<path class="st0" d="M153.8,204.2c0-0.5,0.3-0.8,0.7-0.8v-0.1c-0.4,0-0.7-0.3-0.7-0.8V201c0-0.6,0.3-0.9,0.9-0.9h3.9
		c0.6,0,0.9,0.3,0.9,0.9v0.9h-1.2v-0.4c0-0.2-0.1-0.4-0.4-0.4h-2.7c-0.2,0-0.4,0.1-0.4,0.4v0.8c0,0.3,0.2,0.5,0.5,0.5h4.9
		c0.1,0,0.1,0,0.1,0.1v0.8c0,0.1,0,0.1-0.1,0.1h-0.8v1.7c0,0.6-0.3,0.9-0.9,0.9h-3.9c-0.6,0-0.9-0.3-0.9-0.9V204.2z M155.4,205.4
		h2.7c0.2,0,0.4-0.1,0.4-0.4v-1.2h-2.9c-0.3,0-0.5,0.2-0.5,0.5v0.8C155,205.3,155.2,205.4,155.4,205.4z"/>
</g>
</svg>
