<?xml version="1.0" encoding="utf-8"?>
<!-- Generator: Adobe Illustrator 28.0.0, SVG Export Plug-In . SVG Version: 6.00 Build 0)  -->
<svg version="1.1" id="Layer_1" xmlns="http://www.w3.org/2000/svg" xmlns:xlink="http://www.w3.org/1999/xlink" x="0px" y="0px"
	 viewBox="0 0 547.2 216" style="enable-background:new 0 0 547.2 216;" xml:space="preserve">
<style type="text/css">
	.st0{fill:none;}
	.st1{fill:#002B49;}
</style>
<path class="st0" d="M130.8,47.6l-25.9-14.9c-0.2-0.1-0.5-0.2-0.8-0.2s-0.5,0.1-0.8,0.2L95,37.5l-2.4,1.4l-2.4,1.4l-11.1,6.4
	l-2.4,1.4v2.8v28c0,0.6,0.3,1.1,0.8,1.4l25.9,14.9c0.2,0.1,0.5,0.2,0.8,0.2s0.5-0.1,0.8-0.2l8.4-4.8l2.4-1.4l2.4-1.4l11.1-6.4
	l2.4-1.4V77V49C131.6,48.4,131.3,47.9,130.8,47.6z"/>
<path class="st0" d="M469.8,93.9L443.9,79c-0.3-0.1-0.5-0.2-0.8-0.2s-0.6,0.1-0.8,0.2l-8.4,4.8l-2.4,1.4l-2.4,1.4L418,93l-2.4,1.4
	v2.8v28c0,0.6,0.3,1.1,0.8,1.4l25.9,14.9c0.3,0.1,0.5,0.2,0.8,0.2c0.3,0,0.6-0.1,0.8-0.2l8.4-4.8l2.4-1.4l2.4-1.4l11.1-6.4l2.4-1.4
	v-2.8v-28C470.6,94.7,470.3,94.2,469.8,93.9z"/>
<path class="st0" d="M130.9,47.6L105,32.7c-0.3-0.1-0.5-0.2-0.8-0.2s-0.6,0.1-0.8,0.2L95,37.5l-2.4,1.4l-2.4,1.4l-11.1,6.4l-2.4,1.4
	v2.8v28c0,0.6,0.3,1.1,0.8,1.4l25.8,14.9c0.3,0.1,0.5,0.2,0.8,0.2c0.3,0,0.6-0.1,0.8-0.2l8.4-4.8l2.4-1.4l2.4-1.4l11.1-6.4l2.4-1.4
	V77h0.1V49C131.7,48.4,131.4,47.9,130.9,47.6z"/>
<path class="st1" d="M480.8,87.5l-36.9-21.3c-0.3-0.2-0.5-0.2-0.8-0.2s-0.6,0.1-0.8,0.2l-19.4,11.2l-1.3,0.7l-12.2,7.1
	c0,0,0,0-0.1,0l-4,2.4c-0.2,0-0.8,0.3-0.8,1.2v2v2.1l-5.5,5.5h-81.4l-5.5-5.4l5.5,29.3l0,0h81.2l5.6,5.6v3.7c0,0.6,0.3,1.1,0.8,1.4
	l36.9,21.3c0.3,0.2,0.5,0.2,0.8,0.2s0.6-0.1,0.8-0.2l19.4-11.2l1.3-0.7l12.2-7.1c0,0,0,0,0.1,0l4-2.4c0.2,0,0.8-0.3,0.8-1.2v-2V88.9
	C481.6,88.3,481.3,87.8,480.8,87.5z M470.6,123.3v2.8l-2.4,1.4l-11.1,6.4l-2.4,1.4l-2.4,1.4l-8.4,4.8c-0.2,0.1-0.5,0.2-0.8,0.2
	c-0.3,0-0.5-0.1-0.8-0.2l-25.9-14.9c-0.5-0.3-0.8-0.8-0.8-1.4v-28v-2.8L418,93l11.1-6.4l2.4-1.4l2.4-1.4l8.4-4.8
	c0.2-0.1,0.5-0.2,0.8-0.2s0.5,0.1,0.8,0.2l25.9,14.9c0.5,0.3,0.8,0.8,0.8,1.4V123.3z"/>
<path class="st1" d="M229.6,51.8L229.6,51.8h-81.2l-5.6-5.6v-3.7c0-0.6-0.3-1.1-0.8-1.4l-37-21.2c-0.3-0.2-0.5-0.2-0.8-0.2
	s-0.6,0.1-0.8,0.2L84,31.1l-1.3,0.7l-12.2,7.1c0,0,0,0-0.1,0l-4,2.4c-0.2,0-0.8,0.3-0.8,1.2v2v40.8c0,0.6,0.3,1.1,0.8,1.4l36.9,21.3
	c0.3,0.2,0.5,0.2,0.8,0.2c0.3,0,0.6-0.1,0.8-0.2l19.4-11.2l1.3-0.7l12.2-7.1c0,0,0,0,0.1,0l4-2.4c0.2,0,0.8-0.3,0.8-1.2v-2v-2.1
	l5.5-5.5h81.4l5.2,5.2c0.1,0.1,0.3,0.2,0.4,0.3c-0.1-0.2-0.2-0.4-0.2-0.7L229.6,51.8z M131.7,77L131.7,77l-0.1,2.8l-2.4,1.4
	l-11.1,6.4l-2.4,1.4l-2.4,1.4l-8.4,4.8c-0.2,0.1-0.5,0.2-0.8,0.2c-0.3,0-0.5-0.1-0.8-0.2L77.5,80.3c-0.5-0.3-0.8-0.8-0.8-1.4v-28
	v-2.8l2.4-1.4l11.1-6.4l2.4-1.4l2.4-1.4l8.4-4.8c0.2-0.1,0.5-0.2,0.8-0.2s0.5,0.1,0.8,0.2l25.9,14.9c0.5,0.3,0.8,0.8,0.8,1.4V77z"/>
</svg>
