<?xml version="1.0" encoding="utf-8"?>
<!-- Generator: Adobe Illustrator 28.0.0, SVG Export Plug-In . SVG Version: 6.00 Build 0)  -->
<svg version="1.1" id="Layer_1" xmlns="http://www.w3.org/2000/svg" xmlns:xlink="http://www.w3.org/1999/xlink" x="0px" y="0px"
	 viewBox="0 0 547.2 216" style="enable-background:new 0 0 547.2 216;" xml:space="preserve">
<style type="text/css">
	.st0{fill:none;}
</style>
<g>
	<path d="M180.4,172.3v5.2h-2.3v-2.9h-3.3V195h3.2v-5h2.3v7.3h-7.8v-25H180.4z"/>
	<path d="M185.9,197.4v-25.1h7.9v25.1H185.9z M188.2,195.1h3.2v-20.4h-3.2V195.1z"/>
	<path d="M199.4,197.4v-25.1h7.9v5.2H205v-2.9h-3.2v7.3h2.9v2.3h-2.9v13.1L199.4,197.4L199.4,197.4z"/>
	<path d="M213,197.4v-25.1h7.9v5.2h-2.4v-2.9h-3.2v7.3h2.9v2.3h-2.9v13.1L213,197.4L213,197.4z"/>
	<path d="M234.4,172.3v5.2h-2.3v-2.9H229v7.3h2.9v2.3H229v10.7h3.2v-5h2.3v7.3h-8v-24.9H234.4z"/>
	<path d="M247.9,172.3v5.2h-2.3v-2.9h-3.1v7.3h2.9v2.3h-2.9v10.7h3.2v-5h2.3v7.3h-7.9v-24.9H247.9z"/>
	<path d="M271.4,172.3v5.2h-2.3v-2.9h-3.2v5.3l5.5,5.5v12h-7.9v-7.3h2.3v5h3.2v-8.7l-5.5-5.5v-8.6"/>
	<path d="M279.9,197.4v-13.7l-2.8-2.8v-8.6h2.3v7.6l1.6,1.6l1.6-1.6v-7.6h2.3v8.6l-2.7,2.7v13.8H279.9z"/>
	<path d="M296.2,197.4v-11l-3.2-3.2v14.2h-2.3v-25.1h2.3v7.6l3.2,3.2v-10.8h2.3v25.1H296.2z"/>
	<path d="M312.2,172.3v21.6l-3.5,3.5h-4.4v-25.1H312.2z M306.7,195.1h1l2.1-2.1v-18.3h-3.2L306.7,195.1L306.7,195.1z"/>
	<path d="M321.6,172.3v2.3h-1V195h1v2.3h-4.4V195h1v-20.4h-1v-2.3H321.6z"/>
	<path d="M334.8,172.3v5.2h-2.3v-2.9h-3.2V195h3.2v-5h2.3v7.3h-7.9v-25H334.8z"/>
	<path d="M345.5,197.4v-13.1h-3.2v13.1H340v-21.6l3.5-3.5h4.4v25.1H345.5z M345.5,174.7h-1l-2.1,2.1v5.2h3.2L345.5,174.7
		L345.5,174.7z"/>
	<path d="M356.3,197.4v-22.8H355v2.9h-2.2v-5.2h9.2v5.2h-2.2v-2.9h-1.3v22.8H356.3z"/>
	<path d="M375,172.3v5.2h-2.3v-2.9h-3.2v7.3h2.9v2.3h-2.9v10.7h3.2v-5h2.3v7.3h-7.9v-24.9H375z"/>
</g>
</svg>
