<?xml version="1.0" encoding="utf-8"?>
<!-- Generator: Adobe Illustrator 28.0.0, SVG Export Plug-In . SVG Version: 6.00 Build 0)  -->
<svg version="1.1" id="Layer_1" xmlns="http://www.w3.org/2000/svg" xmlns:xlink="http://www.w3.org/1999/xlink" x="0px" y="0px"
	 viewBox="0 0 216 216" style="enable-background:new 0 0 216 216;" xml:space="preserve">
<style type="text/css">
	.st0{fill:#002B49;}
</style>
<g>
	<path class="st0" d="M90.5,111.9l17,9.8c0.5,0.3,1.1,0.3,1.6,0l17-9.8c1.1-0.6,1.1-2.2,0-2.8l-7.8-4.5c-0.5-0.3-1.1-0.3-1.6,0
		l-7.5,4.4c-0.5,0.3-1.1,0.3-1.6,0l-7.5-4.4c-0.5-0.3-1.1-0.3-1.6,0l-7.8,4.5C89.4,109.7,89.4,111.2,90.5,111.9z"/>
	<path class="st0" d="M81.6,61.3l25.9-14.9c0.5-0.3,1.1-0.3,1.6,0l23.4,13.5c0.5,0.3,1.1,0.3,1.6,0l7.8-4.5c1.1-0.6,1.1-2.2,0-2.8
		l-32.9-19c-0.5-0.3-1.1-0.3-1.6,0L70.5,54.9c-0.5,0.3-0.8,0.8-0.8,1.4v38c0,1.3,1.4,2,2.4,1.4l7.8-4.5c0.5-0.3,0.8-0.8,0.8-1.4
		V62.7C80.8,62.1,81.1,61.6,81.6,61.3z"/>
	<path class="st0" d="M146.8,103.5v2v40.8c0,0.6-0.3,1.1-0.8,1.4L109.1,169c-0.5,0.3-1.1,0.3-1.6,0l-32.9-19c-1.1-0.6-1.1-2.2,0-2.8
		l7.8-4.5c0.5-0.3,1.1-0.3,1.6,0l23.4,13.5c0.5,0.3,1.1,0.3,1.6,0l25.9-14.9c0.5-0.3,0.8-0.8,0.8-1.4v-28v-2.8l0,0l-2.4-1.4
		l-11.1-6.4l-2.4-1.4l-2.4-1.4l-8.4-4.8c-0.5-0.3-1.1-0.3-1.6,0L99,98.5l-2.4,1.4l-2.4,1.4L84,107.2c-0.5,0.3-1.1,0.3-1.6,0
		l-7.8-4.5c-1.1-0.6-1.1-2.2,0-2.8l8.6-5l2.4-1.4l2.4-1.4l19.4-11.2c0.5-0.3,1.1-0.3,1.6,0l19.4,11.2l2.4,1.4l2.4,1.4l7.3,4.2
		l5.5,3.2C146.2,102.3,146.8,102.6,146.8,103.5z"/>
</g>
</svg>
