<?xml version="1.0" encoding="utf-8"?>
<!-- Generator: Adobe Illustrator 28.0.0, SVG Export Plug-In . SVG Version: 6.00 Build 0)  -->
<svg version="1.1" id="Layer_1" xmlns="http://www.w3.org/2000/svg" xmlns:xlink="http://www.w3.org/1999/xlink" x="0px" y="0px"
	 viewBox="0 0 547.2 216" style="enable-background:new 0 0 547.2 216;" xml:space="preserve">
<style type="text/css">
	.st0{fill:none;}
</style>
<g>
	<path d="M256,97.2l17,9.8c0.5,0.3,1.1,0.3,1.6,0l17-9.8c1.1-0.6,1.1-2.2,0-2.8l-7.8-4.5c-0.5-0.3-1.1-0.3-1.6,0l-7.5,4.4
		c-0.5,0.3-1.1,0.3-1.6,0l-7.5-4.4c-0.5-0.3-1.1-0.3-1.6,0l-7.8,4.5C254.9,95,254.9,96.5,256,97.2z"/>
	<path d="M247.1,46.6L273,31.7c0.5-0.3,1.1-0.3,1.6,0L298,45.2c0.5,0.3,1.1,0.3,1.6,0l7.8-4.5c1.1-0.6,1.1-2.2,0-2.8l-32.9-19
		c-0.5-0.3-1.1-0.3-1.6,0L236,40.2c-0.5,0.3-0.8,0.8-0.8,1.4v38c0,1.3,1.4,2,2.4,1.4l7.8-4.5c0.5-0.3,0.8-0.8,0.8-1.4V48
		C246.3,47.4,246.6,46.9,247.1,46.6z"/>
	<path d="M312.3,88.8v2v40.8c0,0.6-0.3,1.1-0.8,1.4l-36.9,21.3c-0.5,0.3-1.1,0.3-1.6,0l-32.9-19c-1.1-0.6-1.1-2.2,0-2.8l7.8-4.5
		c0.5-0.3,1.1-0.3,1.6,0l23.4,13.5c0.5,0.3,1.1,0.3,1.6,0l25.9-14.9c0.5-0.3,0.8-0.8,0.8-1.4v-28v-2.8l0,0l-2.4-1.4l-11.1-6.4
		l-2.4-1.4l-2.4-1.4l-8.4-4.8c-0.5-0.3-1.1-0.3-1.6,0l-8.4,4.8l-2.4,1.4l-2.4,1.4l-10.2,5.9c-0.5,0.3-1.1,0.3-1.6,0l-7.8-4.5
		c-1.1-0.6-1.1-2.2,0-2.8l8.6-5l2.4-1.4l2.4-1.4l19.4-11.2c0.5-0.3,1.1-0.3,1.6,0l19.4,11.2l2.4,1.4l2.4,1.4l7.3,4.2l5.5,3.2
		C311.7,87.6,312.3,87.9,312.3,88.8z"/>
</g>
<path class="st0" d="M130.8,47.6l-25.9-14.9c-0.2-0.1-0.5-0.2-0.8-0.2c-0.3,0-0.5,0.1-0.8,0.2L95,37.5l-2.4,1.4l-2.4,1.4l-11.1,6.4
	l-2.4,1.4v2.8v28c0,0.6,0.3,1.1,0.8,1.4l25.9,14.9c0.2,0.1,0.5,0.2,0.8,0.2c0.3,0,0.5-0.1,0.8-0.2l8.4-4.8l2.4-1.4l2.4-1.4l11.1-6.4
	l2.4-1.4V77V49C131.6,48.4,131.3,47.9,130.8,47.6z"/>
</svg>
