<?xml version="1.0" encoding="utf-8"?>
<!-- Generator: Adobe Illustrator 28.0.0, SVG Export Plug-In . SVG Version: 6.00 Build 0)  -->
<svg version="1.1" id="Layer_1" xmlns="http://www.w3.org/2000/svg" xmlns:xlink="http://www.w3.org/1999/xlink" x="0px" y="0px"
	 viewBox="0 0 216 216" style="enable-background:new 0 0 216 216;" xml:space="preserve">
<style type="text/css">
	.st0{fill:#FFFFFF;}
</style>
<path class="st0" d="M167.17,10.15H128H88.83H49.67H12.29c-0.99,0-1.79,0.8-1.79,1.79v37.38v39.17v39.17v39.17v37.38
	c0,0.99,0.8,1.79,1.79,1.79h37.38h39.17H128h39.17h37.38c0.99,0,1.79-0.8,1.79-1.79v-37.38v-39.17V88.49V49.32V11.94
	c0-0.99-0.8-1.79-1.79-1.79H167.17z M167.17,69.65V86.7c0,0.99-0.8,1.79-1.79,1.79h-55.17c-0.99,0-1.79,0.8-1.79,1.79v35.58
	c0,0.99,0.8,1.79,1.79,1.79h55.17c0.99,0,1.79,0.8,1.79,1.79v17.05c0,0.48-0.19,0.93-0.52,1.27l-18.53,18.53
	c-0.34,0.34-0.79,0.52-1.27,0.52H128H88.83H69.99c-0.48,0-0.93-0.19-1.27-0.52l-18.53-18.53c-0.34-0.34-0.52-0.79-0.52-1.27v-18.84
	V88.49V69.65c0-0.48,0.19-0.93,0.52-1.27l18.53-18.53c0.34-0.34,0.79-0.52,1.27-0.52h18.84H128h18.84c0.48,0,0.93,0.19,1.27,0.52
	l18.53,18.53C166.98,68.72,167.17,69.17,167.17,69.65z"/>
</svg>
