<?xml version="1.0" encoding="utf-8"?>
<!-- Generator: Adobe Illustrator 28.0.0, SVG Export Plug-In . SVG Version: 6.00 Build 0)  -->
<svg version="1.1" id="Layer_1" xmlns="http://www.w3.org/2000/svg" xmlns:xlink="http://www.w3.org/1999/xlink" x="0px" y="0px"
	 viewBox="0 0 366.8 294.8" style="enable-background:new 0 0 366.8 294.8;" xml:space="preserve">
<style type="text/css">
	.st0{display:none;}
	.st1{fill:#072B49;}
	.st2{fill:#FFFFFF;}
	.st3{fill:#D05F27;}
</style>
<g id="Layer_1_00000023983944689020513300000016946468508931825296_" class="st0">
</g>
<g id="Layer_3" class="st0">
</g>
<g id="Layer_2_00000077295517852373160950000013190558165827664513_">
	<path class="st1" d="M276.6,294.8H18.2c-10,0-18.2-8.2-18.2-18.2v-260C0,6.6,8.2-1.6,18.2-1.6h258.3c10.1,0,18.2,8.2,18.2,18.2
		v259.9C294.8,286.6,286.6,294.8,276.6,294.8z"/>
	<g>
		<path class="st2" d="M116.9,164.6v-57.5c0-7.5,4-11.5,11.5-11.5h48.2c0.8,0,1.4,0.6,1.4,1.5v10.4c0,0.9-0.6,1.5-1.4,1.5h-40.1
			c-3,0-4.6,1.6-4.6,4.6v16.2h34.6c7.5,0,11.5,4,11.5,11.5v23.3c0,7.5-4,11.5-11.5,11.5h-38.1C120.9,176.1,116.9,172.1,116.9,164.6z
			 M136.4,162.8h22c3,0,4.6-1.6,4.6-4.6v-10.6c0-3-1.6-4.6-4.6-4.6h-26.6v15.2C131.8,161.2,133.4,162.8,136.4,162.8z"/>
	</g>
</g>
<g id="Layer_4">
</g>
<g>
	<path class="st3" d="M302.6,246.1c-0.5-0.3-0.8-0.7-0.8-1.1v-8.4c0-0.6,0.4-1,1.1-1h55.1c0.7,0,1.1,0.4,1.1,1v8.6
		c0,0.6-0.4,1.1-1.1,1.1h-37.7l21.1,15l-21.1,15h37.7c0.7,0,1.1,0.5,1.1,1.1v8.6c0,0.6-0.4,1-1.1,1h-55.1c-0.7,0-1.1-0.4-1.1-1v-8.4
		c0-0.6,0.2-0.8,0.8-1.2l22.4-15L302.6,246.1z"/>
	<path class="st3" d="M351.6,222.4h-42.5c-5.3,0-8.2-2.9-8.2-8.2v-27.1c0-5.3,2.9-8.2,8.2-8.2h42.5c5.3,0,8.2,2.9,8.2,8.2v27.1
		C359.8,219.5,356.9,222.4,351.6,222.4z M350.3,208.4v-15.6c0-2.1-1.1-3.3-3.3-3.3h-33.4c-2.1,0-3.3,1.1-3.3,3.3v15.6
		c0,2.1,1.1,3.4,3.3,3.4H347C349.2,211.7,350.3,210.5,350.3,208.4z"/>
	<path class="st3" d="M302.8,165.6c-0.7,0-1.1-0.4-1.1-1v-7.8c0-0.6,0.3-0.9,0.8-1.2l37.6-26.1h-37.4c-0.7,0-1.1-0.5-1.1-1.1v-8.6
		c0-0.6,0.4-1,1.1-1h55.1c0.7,0,1.1,0.4,1.1,1v7.7c0,0.6-0.2,1.1-0.8,1.4l-36.8,26h36.5c0.7,0,1.1,0.5,1.1,1.1v8.6
		c0,0.6-0.4,1-1.1,1H302.8z"/>
	<path class="st3" d="M302.8,107.6c-0.7,0-1.1-0.5-1.1-1.1V66.1c0-0.7,0.4-1.1,1.1-1.1h8.5c0.7,0,1.1,0.4,1.1,1.1V81H358
		c0.6,0,1.1,0.4,1.1,1.1v8.5c0,0.7-0.5,1.1-1.1,1.1h-45.6v14.9c0,0.6-0.4,1.1-1.1,1.1H302.8z"/>
	<path class="st3" d="M302.8,7.3h55.1c0.7,0,1.1,0.4,1.1,1.1v8.5c0,0.7-0.4,1.1-1.1,1.1h-22.8v25.5h22.8c0.7,0,1.1,0.4,1.1,1.1V53
		c0,0.7-0.4,1.1-1.1,1.1h-55.1c-0.7,0-1.1-0.4-1.1-1.1v-8.5c0-0.7,0.4-1.1,1.1-1.1h22.8V17.9h-22.8c-0.7,0-1.1-0.4-1.1-1.1V8.3
		C301.7,7.7,302.2,7.3,302.8,7.3z"/>
</g>
</svg>
