<?xml version="1.0" encoding="utf-8"?>
<!-- Generator: Adobe Illustrator 28.0.0, SVG Export Plug-In . SVG Version: 6.00 Build 0)  -->
<svg version="1.1" xmlns="http://www.w3.org/2000/svg" xmlns:xlink="http://www.w3.org/1999/xlink" x="0px" y="0px"
	 viewBox="0 0 294.8 294.8" style="enable-background:new 0 0 294.8 294.8;" xml:space="preserve">
<style type="text/css">
	.st0{display:none;}
	.st1{display:inline;opacity:0.71;fill:#ED1C24;}
	.st2{display:inline;fill:#ED1C24;}
	.st3{display:inline;fill:#8B181B;}
	.st4{fill:#072B49;}
	.st5{fill:#072B49;stroke:#072B49;stroke-width:6;stroke-miterlimit:10;}
	.st6{fill:#FFFFFF;}
	.st7{fill:none;stroke:#072B49;stroke-width:6;stroke-miterlimit:10;}
</style>
<g id="Layer_1" class="st0">
</g>
<g id="Layer_3" class="st0">
</g>
<g id="Layer_2">
	<path class="st4" d="M276.6,294.8H18.2C8.2,294.8,0,286.6,0,276.6V16.6C0,6.6,8.2-1.6,18.2-1.6h258.3c10.1,0,18.2,8.2,18.2,18.2
		v259.9C294.8,286.6,286.6,294.8,276.6,294.8z"/>
	<g>
		<path class="st6" d="M118.2,95.6h48.2c7.5,0,11.5,4,11.5,11.5v18.3c0,6-3.6,10.2-8.6,10.2v1.1c5.1,0,8.6,4.1,8.6,10.1v17.7
			c0,7.5-4,11.5-11.5,11.5h-48.2c-0.8,0-1.4-0.6-1.4-1.5v-10.4c0-0.9,0.6-1.5,1.4-1.5h40.1c3,0,4.6-1.6,4.6-4.6v-9.8
			c0-3.8-2.1-5.9-5.9-5.9h-27c-0.9,0-1.5-0.6-1.5-1.5v-10.4c0-0.9,0.6-1.5,1.5-1.5h27c3.8,0,5.9-2.1,5.9-5.9v-9.8
			c0-3-1.6-4.6-4.6-4.6h-40.1c-0.8,0-1.4-0.6-1.4-1.5V97C116.9,96.2,117.4,95.6,118.2,95.6z"/>
	</g>
</g>
<g id="Layer_4">
</g>
</svg>
