<?xml version="1.0" encoding="utf-8"?>
<!-- Generator: Adobe Illustrator 28.0.0, SVG Export Plug-In . SVG Version: 6.00 Build 0)  -->
<svg version="1.1" xmlns="http://www.w3.org/2000/svg" xmlns:xlink="http://www.w3.org/1999/xlink" x="0px" y="0px"
	 viewBox="0 0 294.8 294.8" style="enable-background:new 0 0 294.8 294.8;" xml:space="preserve">
<style type="text/css">
	.st0{display:none;}
	.st1{display:inline;opacity:0.71;fill:#ED1C24;}
	.st2{display:inline;fill:#ED1C24;}
	.st3{display:inline;fill:#8B181B;}
	.st4{fill:#072B49;}
	.st5{fill:#072B49;stroke:#072B49;stroke-width:6;stroke-miterlimit:10;}
	.st6{fill:#FFFFFF;}
	.st7{fill:none;stroke:#072B49;stroke-width:6;stroke-miterlimit:10;}
</style>
<g id="Layer_1" class="st0">
</g>
<g id="Layer_3" class="st0">
</g>
<g id="Layer_2">
	<path class="st4" d="M276.6,294.8H18.2C8.2,294.8,0,286.6,0,276.6V16.6C0,6.6,8.2-1.6,18.2-1.6h258.3c10.1,0,18.2,8.2,18.2,18.2
		v259.9C294.8,286.6,286.6,294.8,276.6,294.8z"/>
	<g>
		<path class="st6" d="M116.9,164.6v-57.5c0-7.5,4-11.5,11.5-11.5h48.2c0.8,0,1.4,0.6,1.4,1.5v10.4c0,0.9-0.6,1.5-1.4,1.5h-40.1
			c-3,0-4.6,1.6-4.6,4.6v16.2h34.6c7.5,0,11.5,4,11.5,11.5v23.3c0,7.5-4,11.5-11.5,11.5h-38.1C120.9,176.1,116.9,172.1,116.9,164.6z
			 M136.4,162.8h22c3,0,4.6-1.6,4.6-4.6v-10.6c0-3-1.6-4.6-4.6-4.6h-26.6v15.2C131.8,161.2,133.4,162.8,136.4,162.8z"/>
	</g>
</g>
<g id="Layer_4">
</g>
</svg>
