<?xml version="1.0" encoding="utf-8"?>
<!-- Generator: Adobe Illustrator 28.0.0, SVG Export Plug-In . SVG Version: 6.00 Build 0)  -->
<svg version="1.1" xmlns="http://www.w3.org/2000/svg" xmlns:xlink="http://www.w3.org/1999/xlink" x="0px" y="0px"
	 viewBox="0 0 720 768.4" style="enable-background:new 0 0 720 768.4;" xml:space="preserve">
<style type="text/css">
	.st0{display:none;}
	.st1{display:inline;opacity:0.71;fill:#ED1C24;}
	.st2{display:inline;fill:#ED1C24;}
	.st3{display:inline;fill:#8B181B;}
	.st4{fill:#072B49;}
	.st5{fill:none;stroke:#072B49;stroke-width:6;stroke-miterlimit:10;}
	.st6{fill:#072B49;stroke:#072B49;stroke-width:6;stroke-miterlimit:10;}
</style>
<g id="Layer_1" class="st0">
	
		<image style="display:inline;overflow:visible;" width="700" height="700" xlink:href="C46B979B5F0481F1.jpg"  transform="matrix(1 0 0 1 9.8047 10.3609)">
	</image>
</g>
<g id="Layer_3" class="st0">
	<rect x="159.4" y="103.3" class="st1" width="414.2" height="428.9"/>
	<rect x="150.3" y="544.1" class="st2" width="432.4" height="84.9"/>
	<polygon class="st3" points="582.7,544.1 150.3,544.1 159.3,509.3 573.7,509.3 	"/>
</g>
<g id="Layer_2">
	<g>
		<path class="st4" d="M605.5,659.3H114.5c-14.8,0-26.9-12.1-26.9-26.9V60c0-14.8,12.1-26.9,26.9-26.9h491.1
			c14.8,0,26.9,12.1,26.9,26.9v572.4C632.4,647.3,620.4,659.3,605.5,659.3z M114.5,39.2c-11.5,0-20.9,9.4-20.9,20.9v572.4
			c0,11.5,9.4,20.9,20.9,20.9h491.1c11.5,0,20.9-9.4,20.9-20.9V60c0-11.5-9.4-20.9-20.9-20.9H114.5z"/>
	</g>
	<path class="st6" d="M611.1,711.2H108.9c-10.1,0-18.3-8.2-18.3-18.3v-61.2h538.8v61.2C629.4,703,621.2,711.2,611.1,711.2z"/>
	<g>
		<path class="st4" d="M145.2,237.2v8.8l23,2.1h-23l4,6.9h7.1h8.9l-8.9,2.2v6.9l8.9,2.4h-8.9h-2.4v6.4h2.4h8.9l-8.9,2.8v53.8
			c0,0,0.7,16.3-21,16.3H78.6v0.1c-33.2,1-33.7,25.8-33.6,30.2h0v186.1h10.5l-11.3,3.6l-5.1,23v9.4H50l-9.8,1.9l4.8,8h14.7l5.9-9.9
			v-9.4l-5.9-26.6V376.7h0.1c0,0-0.7-16.3,21-16.3h54.5c38.6,0,35.6-30.9,35.6-30.9v-56.6h2.4v-6.4h-2.4V255h7.1l4-6.9v-4.6
			c-7.1-4.9-15.7-7.8-25-7.8C152.9,235.6,148.9,236.2,145.2,237.2z"/>
		<path class="st4" d="M673.4,523.2V376h0c0.2-4.4-0.4-29.2-33.6-30.2v-0.1h-56.6c-21.7,0-21-16.3-21-16.3v-56.6h2.4v-6.4h-2.4V255
			h7.1l4-6.9v-10.8c-3.9-1.1-7.9-1.7-12.1-1.7c-9.1,0-17.6,2.8-24.7,7.6v2.5l19.5,2.3h-19.5l4,6.9h7.1h10l-10,2.9v6.2l9.8,2.4h-9.8
			h-2.4v6.4h2.4h10l-10,2.4v54.2c0,0-3,30.9,35.6,30.9h54.5c21.7,0,21,16.3,21,16.3h0.1V520l8.2,2c-3.9-0.2-8.2,1.2-8.2,1.2
			c-14.3,6.7-15.4,18.6-15.4,18.6s3.3,3.2,18.1,3.2c0,0-13.4,0.6-18.3-0.5v24.1v9.9c0,0,6.2,5.5,22.7,5.5c16.5,0,22.7-5.5,22.7-5.5
			h0.4v-9.9v-25.9C688.9,542.8,687.7,530,673.4,523.2z"/>
		<polygon class="st4" points="517.6,442.5 514.4,443.2 517.6,442.6 		"/>
		<polygon class="st4" points="301,306.9 266.5,313 301,306.9 		"/>
		<path class="st4" d="M538,439l-3.2,0.6l-13.4-75.6l7.8-1.4v-11.6h4.9v-27.6h-4.9v-17.5h-32.6v5.7v7.4v13.9l-1.6-13.9h-29.4v10.9
			h-5.3v-15.1l-9.6-1.2v-1.6l-34.5-4.9l8.1-5.1c0-63.2-8.1-91.6-8.1-91.6c-16-16.8-17.3-43.6-17.3-43.6h-6.8v-6.8h2.7v-19.6
			l-7.7-4.2v-16.4l-4.8-7.6h-48.2l-4.8,7.6v14l27.7,2.4h-27.7l-7.7,4.2v19.6h2.7h32.7l-32.7,1.8v5h-6.2c0,0-1.3,26.8-17.3,43.6
			c0,0-8.1,28.4-8.1,91.6l4.6,2.9l25.3-6.7l7.3-107.5v111.2l-29,5.2l0,0l-34.5,6.1v49.2h58.8h40.4l-39.5,4.9l0,19.5v80h7.4H355
			l-21.4,3.2v69.2h9.6h16.2l-16.2,2.4v17.2H374v-19.6h9.6v-72.4h7.4v-80v-24.4h59.8v-1.5v-16l2,15.8l7.6-1v-15.1h5.3v10.9h31v13.1
			l19.5-3.8l-11.6,4.3l12.7,71.3h12.5l-12,2.4l0,0.1l-3.2,0.6l0.8,52.7l6.5,8.9l30.7-5.5l3-10.6L538,439z M333.7,141.3l0,2v4.1v4.1
			v2c-0.2,0.7-0.4,1.4-0.6,2c-0.2-0.7-0.4-1.4-0.6-2v-2v-4.1v-4.1l0-2 M348,544.3l0,1.5v3v3v1.5c-0.2,0.5-0.4,1-0.6,1.5
			c-0.2-0.5-0.4-1-0.6-1.5v-1.5v-3v-3l0-1.5 M358.8,544.3l0,1.5v3v3v1.5c-0.2,0.5-0.4,1-0.6,1.5c-0.2-0.5-0.4-1-0.6-1.5v-1.5v-3v-3
			l0-1.5 M359.1,141.3l0,2v4.1v4.1v2c-0.2,0.7-0.4,1.4-0.6,2c-0.2-0.7-0.4-1.4-0.6-2v-2v-4.1v-4.1l0-2 M367.2,254.8
			c0,0.4-0.1,0.8-0.2,1.1c0.2,0.4,0.2,0.7,0.2,1.1c0,2.6-3.7,4.7-8.4,4.7c-4.6,0-8.4-2.1-8.4-4.7c0-0.4,0.1-0.8,0.2-1.1
			c-0.2-0.4-0.2-0.7-0.2-1.1c0-0.4,0.1-0.9,0.3-1.3c-0.2-0.4-0.3-0.8-0.3-1.3c0-2.6,3.7-4.7,8.4-4.7c4.6,0,8.4,2.1,8.4,4.7
			c0,0.4-0.1,0.9-0.3,1.3C367.1,253.9,367.2,254.4,367.2,254.8z M369.6,544.3l0,1.5v3v3v1.5c-0.2,0.5-0.4,1-0.6,1.5
			c-0.2-0.5-0.4-1-0.6-1.5v-1.5v-3v-3l0-1.5 M384.4,141.3l0,2v4.1v4.1v2c-0.2,0.7-0.4,1.4-0.6,2c-0.2-0.7-0.4-1.4-0.6-2v-2v-4.1
			v-4.1l0-2 M385.4,301.8V192.7l6.3,110.3L385.4,301.8z"/>
		<path class="st4" d="M351.6,254.7c-0.4-0.4-0.6-0.7-0.8-1.1c-0.2,0.4-0.3,0.8-0.3,1.3c0,0.4,0.1,0.8,0.2,1.1
			C350.9,255.5,351.2,255.1,351.6,254.7z"/>
		<path class="st4" d="M366,254.7c0.4,0.4,0.7,0.8,0.9,1.3c0.2-0.4,0.2-0.7,0.2-1.1c0-0.4-0.1-0.9-0.3-1.3
			C366.7,253.9,366.4,254.3,366,254.7z"/>
		<path class="st4" d="M366,254.7c-1.5,1.4-4.1,2.3-7.2,2.3c-3.1,0-5.7-0.9-7.2-2.3c-0.4,0.4-0.7,0.8-0.9,1.3
			c0.9,2.1,4.2,3.6,8.1,3.6c3.9,0,7.2-1.5,8.1-3.6C366.7,255.5,366.4,255.1,366,254.7z"/>
		<path class="st4" d="M214.7,177.5c-0.9-4.8-2.5-9.5-4.5-13.8c-0.5-1.1-1.7-1.8-2.9-1.8c-8.6-0.2-17.3-2.9-24.8-8.3
			c-7.5-5.5-12.8-12.9-15.6-21.1c-0.4-1.2-1.5-2-2.7-2.2c-2.3-0.3-4.7-0.4-7.1-0.4c-2.4,0-4.8,0.2-7.1,0.4c-1.2,0.2-2.3,1-2.7,2.2
			c-2.8,8.2-8.1,15.6-15.6,21.1c-7.5,5.5-16.2,8.2-24.8,8.3c-1.2,0-2.4,0.7-2.9,1.8c-2,4.3-3.6,9-4.5,13.8c-0.2,1.2,0.3,2.4,1.2,3.2
			c6.9,5.2,12.4,12.5,15.2,21.4c2.9,8.9,2.8,18,0.2,26.2c-0.4,1.2,0,2.4,0.9,3.3c3.5,3.3,7.5,6.2,11.7,8.5c1.1,0.6,2.4,0.5,3.4-0.2
			c4-2.8,8.4-4.9,13.2-6.3c3.8-1.1,7.7-1.6,11.8-1.6c9.3,0,17.9,2.9,25,7.8c0,0,0,0,0,0c1,0.7,2.3,0.8,3.4,0.2
			c4.3-2.4,8.2-5.2,11.7-8.5c0.9-0.8,1.2-2.1,0.9-3.3c-2.5-8.3-2.6-17.4,0.2-26.2c2.9-8.9,8.3-16.2,15.2-21.4
			C214.5,179.9,214.9,178.7,214.7,177.5z M157,195.8c-5.9,0-10.7-4.8-10.7-10.7c0-5.9,4.8-10.7,10.7-10.7c5.9,0,10.7,4.8,10.7,10.7
			C167.7,191.1,162.9,195.8,157,195.8z"/>
		<path class="st4" d="M618.7,177c-0.9-4.5-2.3-8.8-4.2-12.8c-0.6-1.4-1.9-2.3-3.4-2.3c-8.5-0.2-17.1-2.9-24.5-8.3
			c-7.4-5.4-12.6-12.7-15.5-20.7c-0.5-1.4-1.8-2.4-3.2-2.6c-2.2-0.3-4.5-0.4-6.8-0.4s-4.5,0.1-6.8,0.4c-1.5,0.2-2.7,1.2-3.2,2.6
			c-2.9,8-8.1,15.3-15.5,20.7c-7.4,5.4-16,8.1-24.5,8.3c-1.5,0-2.8,1-3.4,2.3c-1.9,4-3.3,8.3-4.2,12.8c-0.3,1.5,0.2,3,1.4,3.9
			c6.8,5.2,12.1,12.4,14.9,21.1c2.8,8.7,2.8,17.7,0.4,25.9c-0.4,1.4,0,3,1.1,4c3.3,3,7,5.7,10.9,7.9c1.3,0.7,2.9,0.7,4.2-0.2
			c0,0,0,0,0,0c7-4.8,15.5-7.6,24.7-7.6c4.2,0,8.3,0.6,12.1,1.7c4.5,1.3,8.8,3.3,12.6,5.9c1.2,0.8,2.8,0.9,4.2,0.2
			c3.9-2.2,7.6-4.9,10.9-7.9c1.1-1,1.6-2.6,1.1-4c-2.4-8.2-2.5-17.1,0.4-25.9c2.8-8.7,8.2-15.9,14.9-21.1
			C618.5,180,619,178.5,618.7,177z M561.1,195.8c-5.9,0-10.7-4.8-10.7-10.7c0-5.9,4.8-10.7,10.7-10.7s10.7,4.8,10.7,10.7
			C571.8,191.1,567,195.8,561.1,195.8z"/>
	</g>
	<path class="st6" d="M174.6,741.2h-69c-8.3,0-15-6.7-15-15v-27.3h99.1v27.3C189.7,734.4,182.9,741.2,174.6,741.2z"/>
	<path class="st6" d="M614.4,741.2h-69c-8.3,0-15-6.7-15-15v-27.3h99.1v27.3C629.4,734.4,622.7,741.2,614.4,741.2z"/>
	<path class="st4" d="M170.3,597c-1.7,0-3,1.3-3,3l0,0v31.7v4.9c0,1.7,1.3,3,3,3l0,0c1.7,0,3-1.3,3-3v-4.9V606c0-1.7,1.3-3,3-3h30.2
		c1.7,0,3,1.3,3,3v25.4c0,1.7,1.3,3,3,3l0,0c1.7,0,3-1.3,3-3V606c0-1.7,1.3-3,3-3h30.2c1.7,0,3,1.3,3,3v28.1c0,1.7,1.3,3,3,3l0,0
		c1.7,0,3-1.3,3-3V606c0-1.7,1.3-3,3-3h30.2c1.7,0,3,1.3,3,3v30.9c0,1.7,1.3,3,3,3l0,0c1.7,0,3-1.3,3-3V606c0-1.7,1.3-3,3-3h30.2
		c1.7,0,3,1.3,3,3v33.6c0,1.7,1.3,3,3,3l0,0c1.7,0,3-1.3,3-3V606c0-1.7,1.3-3,3-3h30.2c1.7,0,3,1.3,3,3v36.3c0,1.7,1.3,3,3,3l0,0
		c1.7,0,3-1.3,3-3V606c0-1.7,1.3-3,3-3h30.2c1.7,0,3,1.3,3,3v39.1c0,1.7,1.3,3,3,3l0,0c1.7,0,3-1.3,3-3V606c0-1.7,1.3-3,3-3h30.2
		c1.7,0,3,1.3,3,3v41.8c0,1.7,1.3,3,3,3l0,0c1.7,0,3-1.3,3-3V606c0-1.7,1.3-3,3-3h30.2c1.7,0,3,1.3,3,3v44.5c0,1.7,1.3,3,3,3l0,0
		c1.7,0,3-1.3,3-3V606c0-1.7,1.3-3,3-3h30.2c1.7,0,3,1.3,3,3v25.7v21.6c0,1.7,1.3,3,3,3l0,0c1.7,0,3-1.3,3-3v-21.6V600l0,0
		c0-1.7-1.3-3-3-3H170.3z"/>
</g>
<g id="Layer_4">
</g>
</svg>
