<?xml version="1.0" encoding="utf-8"?>
<!-- Generator: Adobe Illustrator 28.0.0, SVG Export Plug-In . SVG Version: 6.00 Build 0)  -->
<svg version="1.1" id="Layer_1" xmlns="http://www.w3.org/2000/svg" xmlns:xlink="http://www.w3.org/1999/xlink" x="0px" y="0px"
	 viewBox="0 0 551.2 429.2" style="enable-background:new 0 0 551.2 429.2;" xml:space="preserve">
<style type="text/css">
	.st0{fill:#FFFFFF;}
	.st1{display:none;}
	.st2{fill:#072B49;}
	.st3{fill:none;stroke:#D05F27;stroke-width:2;stroke-miterlimit:10;}
	.st4{fill:none;stroke:#072B49;stroke-miterlimit:10;}
</style>
<rect x="17.9" class="st0" width="533.3" height="429.2"/>
<g id="Layer_1_00000056421488803963149590000005719241916248549768_" class="st1">
</g>
<g id="Layer_3" class="st1">
</g>
<g id="Layer_2_00000151543267853210342430000010543517122786976907_">
</g>
<g id="Layer_4">
	<g>
		<path class="st0" d="M517.3,329.5H33.9c-8.8,0-16-7.1-16-16V38.3c0-8.8,7.1-16,16-16h483.4c8.8,0,16,7.1,16,16v275.3
			C533.3,322.4,526.1,329.5,517.3,329.5z"/>
		<g>
			<path class="st2" d="M521.2,307.3V47c0-6.8-5.5-12.4-12.4-12.4H42.3c-6.8,0-12.4,5.5-12.4,12.4v260.3c0,6.8,5.5,12.4,12.4,12.4
				h206.1c4.7,0,8.5,3.8,8.5,8.5v44.6c0,4.7-3.8,8.5-8.5,8.5L142.9,395c-6,0.8-10.4,5.9-10.4,11.9l0,0h286.3l0,0
				c0-6-4.5-11.1-10.4-11.9l-105.6-13.7c-4.7,0-8.5-3.8-8.5-8.5v-44.6c0-4.7,3.8-8.5,8.5-8.5h206.1
				C515.7,319.7,521.2,314.1,521.2,307.3z"/>
			<path class="st0" d="M504.9,308.9H47.1c-2.6,0-4.8-2.1-4.8-4.8V50.4c0-2.6,2.1-4.8,4.8-4.8h457.8c2.6,0,4.8,2.1,4.8,4.8v253.8
				C509.6,306.8,507.5,308.9,504.9,308.9z"/>
		</g>
	</g>
	<path class="st3" d="M53.1,94.1c26.4,25.8,45.6,54.1,62.3,86.8c12.9,25.2,30.3,58.4,62.6,59.6c54.1,2,90.1-51.4,127.9-81.7
		C356,118.5,429.6,96,492.4,87.4"/>
	<path class="st4" d="M53.1,204.2c0,0,40.3-116.9,82.6-116.9s149.5,123,356.8,133.5"/>
</g>
</svg>
