<?xml version="1.0" encoding="utf-8"?>
<!-- Generator: Adobe Illustrator 28.0.0, SVG Export Plug-In . SVG Version: 6.00 Build 0)  -->
<svg version="1.1" xmlns="http://www.w3.org/2000/svg" xmlns:xlink="http://www.w3.org/1999/xlink" x="0px" y="0px"
	 viewBox="0 0 551.2 429.2" style="enable-background:new 0 0 551.2 429.2;" xml:space="preserve">
<style type="text/css">
	.st0{display:none;}
	.st1{display:inline;opacity:0.71;fill:#ED1C24;}
	.st2{display:inline;fill:#ED1C24;}
	.st3{display:inline;fill:#8B181B;}
	.st4{fill:#FFFFFF;}
	.st5{fill:#072B49;}
</style>
<g id="Layer_1" class="st0">
</g>
<g id="Layer_3" class="st0">
</g>
<g id="Layer_2">
</g>
<g id="Layer_4">
	<path class="st4" d="M410.8,409.8H140.4c-8.8,0-16-7.1-16-16V35.3c0-8.8,7.1-16,16-16h270.4c8.8,0,16,7.1,16,16v358.5
		C426.7,402.6,419.6,409.8,410.8,409.8z"/>
	<g>
		<path class="st5" d="M415.5,400.8H135.7V41.4c0-7.1,5.8-12.9,12.9-12.9h254.1c7.1,0,12.9,5.8,12.9,12.9V400.8z"/>
		<circle class="st4" cx="368.2" cy="73.5" r="9.9"/>
		<g>
			<path class="st4" d="M363.2,161.3H188c-3.1,0-5.6-2.5-5.6-5.6v-38.6c0-3.1,2.5-5.6,5.6-5.6h175.2c3.1,0,5.6,2.5,5.6,5.6v38.6
				C368.8,158.8,366.3,161.3,363.2,161.3z"/>
			<g>
				<circle class="st5" cx="245.7" cy="127.4" r="6"/>
				<circle class="st5" cx="263.8" cy="127.4" r="6"/>
				<circle class="st5" cx="281.9" cy="127.4" r="6"/>
				<circle class="st5" cx="300" cy="127.4" r="6"/>
				<circle class="st5" cx="318.1" cy="127.4" r="6"/>
				<circle class="st5" cx="336.2" cy="127.4" r="6"/>
				<circle class="st5" cx="354.3" cy="127.4" r="6"/>
				<circle class="st5" cx="239.7" cy="145.5" r="6"/>
				<circle class="st5" cx="257.8" cy="145.5" r="6"/>
				<circle class="st5" cx="275.9" cy="145.5" r="6"/>
				<circle class="st5" cx="294" cy="145.5" r="6"/>
				<circle class="st5" cx="312.1" cy="145.5" r="6"/>
				<circle class="st5" cx="330.2" cy="145.5" r="6"/>
				<circle class="st5" cx="348.3" cy="145.5" r="6"/>
			</g>
			<rect x="200.8" y="98.5" class="st5" width="13.6" height="76.5"/>
		</g>
		<g>
			<path class="st4" d="M363.2,251.4H188c-3.1,0-5.6-2.5-5.6-5.6v-38.6c0-3.1,2.5-5.6,5.6-5.6h175.2c3.1,0,5.6,2.5,5.6,5.6v38.6
				C368.8,248.9,366.3,251.4,363.2,251.4z"/>
			<g>
				<circle class="st5" cx="245.7" cy="217.5" r="6"/>
				<circle class="st5" cx="263.8" cy="217.5" r="6"/>
				<circle class="st5" cx="281.9" cy="217.5" r="6"/>
				<circle class="st5" cx="300" cy="217.5" r="6"/>
				<circle class="st5" cx="318.1" cy="217.5" r="6"/>
				<circle class="st5" cx="336.2" cy="217.5" r="6"/>
				<circle class="st5" cx="354.3" cy="217.5" r="6"/>
				<circle class="st5" cx="239.7" cy="235.6" r="6"/>
				<circle class="st5" cx="257.8" cy="235.6" r="6"/>
				<circle class="st5" cx="275.9" cy="235.6" r="6"/>
				<circle class="st5" cx="294" cy="235.6" r="6"/>
				<circle class="st5" cx="312.1" cy="235.6" r="6"/>
				<circle class="st5" cx="330.2" cy="235.6" r="6"/>
				<circle class="st5" cx="348.3" cy="235.6" r="6"/>
			</g>
			<rect x="200.8" y="188.6" class="st5" width="13.6" height="76.5"/>
		</g>
		<g>
			<path class="st4" d="M363.2,341.5H188c-3.1,0-5.6-2.5-5.6-5.6v-38.6c0-3.1,2.5-5.6,5.6-5.6h175.2c3.1,0,5.6,2.5,5.6,5.6v38.6
				C368.8,339,366.3,341.5,363.2,341.5z"/>
			<g>
				<circle class="st5" cx="245.7" cy="307.5" r="6"/>
				<circle class="st5" cx="263.8" cy="307.5" r="6"/>
				<circle class="st5" cx="281.9" cy="307.5" r="6"/>
				<circle class="st5" cx="300" cy="307.5" r="6"/>
				<circle class="st5" cx="318.1" cy="307.5" r="6"/>
				<circle class="st5" cx="336.2" cy="307.5" r="6"/>
				<circle class="st5" cx="354.3" cy="307.5" r="6"/>
				<circle class="st5" cx="239.7" cy="325.6" r="6"/>
				<circle class="st5" cx="257.8" cy="325.6" r="6"/>
				<circle class="st5" cx="275.9" cy="325.6" r="6"/>
				<circle class="st5" cx="294" cy="325.6" r="6"/>
				<circle class="st5" cx="312.1" cy="325.6" r="6"/>
				<circle class="st5" cx="330.2" cy="325.6" r="6"/>
				<circle class="st5" cx="348.3" cy="325.6" r="6"/>
			</g>
			<rect x="200.8" y="278.7" class="st5" width="13.6" height="76.5"/>
		</g>
	</g>
</g>
</svg>
