<?xml version="1.0" encoding="utf-8"?>
<!-- Generator: Adobe Illustrator 28.0.0, SVG Export Plug-In . SVG Version: 6.00 Build 0)  -->
<svg version="1.1" xmlns="http://www.w3.org/2000/svg" xmlns:xlink="http://www.w3.org/1999/xlink" x="0px" y="0px"
	 viewBox="0 0 720 720" style="enable-background:new 0 0 720 720;" xml:space="preserve">
<style type="text/css">
	.st0{display:none;}
	.st1{display:inline;opacity:0.71;fill:#ED1C24;}
	.st2{display:inline;fill:#ED1C24;}
	.st3{display:inline;fill:#8B181B;}
	.st4{fill:#FFFFFF;}
	.st5{fill:#d05f27;}
</style>
<g id="Layer_1" class="st0">
</g>
<g id="Layer_3" class="st0">
</g>
<g id="Layer_2">
	<g>
		<g>
			<path class="st5" d="M40.8,276c0.1-0.3,0.4-0.5,0.6-0.4l19.5,5.4l3.3-11.9c0.1-0.3,0.4-0.5,0.6-0.4l3.8,1
				c0.3,0.1,0.4,0.3,0.4,0.7l-4.6,16.8c-0.1,0.3-0.3,0.5-0.6,0.4L40,281.1c-0.3-0.1-0.4-0.4-0.4-0.6L40.8,276z"/>
			<path class="st5" d="M70.4,264.2l-23.1-8.5c-0.3-0.1-0.4-0.4-0.3-0.7l7-18.9c0.1-0.3,0.4-0.4,0.7-0.3l3.7,1.4
				c0.3,0.1,0.4,0.4,0.3,0.7l-5.2,14.1l5.3,2l3.9-10.5c0.1-0.3,0.4-0.4,0.7-0.3l3.2,1.2c0.3,0.1,0.4,0.4,0.3,0.7l-3.9,10.5l5.3,1.9
				l5.2-14.1c0.1-0.3,0.4-0.4,0.7-0.3l3.7,1.4c0.3,0.1,0.4,0.4,0.3,0.7l-7,18.9C71,264.2,70.7,264.3,70.4,264.2z"/>
			<path class="st5" d="M57.3,229.3c-0.3-0.1-0.4-0.5-0.2-0.7l9.1-19.3c0.1-0.3,0.4-0.4,0.7-0.3l4.1,2c0.3,0.1,0.4,0.4,0.2,0.7
				l-3.4,7.1l17.7,8.4c0.2,0.1,0.4,0.4,0.2,0.7l-1.9,4.1c-0.1,0.3-0.5,0.4-0.7,0.3l-17.7-8.4l-3.4,7.1c-0.1,0.3-0.4,0.4-0.7,0.3
				L57.3,229.3z"/>
			<path class="st5" d="M66.5,199.2l2.5-4.4c0.2-0.3,0.5-0.4,0.8-0.1l7.1,6.2c0.2,0.2,0.2,0.5,0.1,0.7l-2.2,3.9
				c-0.2,0.3-0.5,0.4-0.8,0.2l-7.4-5.7C66.4,199.8,66.4,199.5,66.5,199.2z"/>
			<path class="st5" d="M98.1,203.7l-3.3-2.1c-0.3-0.2-0.3-0.5-0.1-0.8l7-10.9c0.6-0.9,0.5-1.7-0.2-2.2l-2.5-1.6
				c-0.7-0.4-1.5-0.2-2.1,0.7l-5,7.7c-1.5,2.4-3.4,2.9-5.4,1.6l-6.6-4.2c-2-1.3-2.3-3.3-0.7-5.6l8.7-13.4c0.2-0.3,0.5-0.4,0.7-0.2
				l3.3,2.1c0.3,0.2,0.3,0.5,0.1,0.8l-7,10.9c-0.6,0.9-0.5,1.7,0.2,2.2l2.8,1.8c0.7,0.4,1.4,0.2,2-0.8l5-7.7
				c1.5-2.4,3.4-2.9,5.4-1.6l6.3,4.1c2,1.3,2.3,3.3,0.7,5.6l-8.6,13.4C98.6,203.8,98.3,203.9,98.1,203.7z"/>
			<path class="st5" d="M118.7,146l-0.9-0.8c-0.7-0.6-1.4-0.4-2.2,0.4l-5.4,6.3c-0.7,0.9-0.8,1.6,0,2.2l9.8,8.4
				c0.7,0.6,1.5,0.5,2.2-0.4l5.4-6.3c0.7-0.9,0.8-1.6,0-2.2l-2.5-2.1l-3.5,4.1c-0.2,0.3-0.5,0.3-0.8,0.1l-2-1.7
				c-0.2-0.2-0.3-0.5,0-0.8l6.8-7.9c0.2-0.3,0.5-0.3,0.8-0.1l7,6c1.8,1.5,1.8,3.5,0,5.7l-9.3,10.9c-1.8,2.1-3.8,2.4-5.6,0.9
				l-14-11.9c-1.8-1.5-1.8-3.5,0-5.7l9.3-10.9c1.8-2.1,3.8-2.4,5.6-0.9l2.9,2.5c0.2,0.2,0.3,0.5,0,0.8l-2.9,3.4
				C119.2,146.2,118.9,146.2,118.7,146z"/>
			<path class="st5" d="M140.3,148.4l-17.2-17.7c-0.2-0.2-0.2-0.5,0-0.7l14.4-14c0.2-0.2,0.5-0.2,0.7,0l2.7,2.8
				c0.2,0.2,0.2,0.5,0,0.7L130.3,130l3.9,4.1l8-7.8c0.2-0.2,0.6-0.2,0.8,0l2.4,2.5c0.2,0.2,0.2,0.5,0,0.8l-8,7.8l3.9,4l10.8-10.5
				c0.2-0.2,0.5-0.2,0.7,0l2.7,2.8c0.2,0.2,0.2,0.5,0,0.7l-14.4,14C140.8,148.6,140.5,148.6,140.3,148.4z"/>
			<path class="st5" d="M143.5,111.3c-0.2-0.2-0.1-0.6,0.1-0.8l16.6-13.5c0.3-0.2,0.6-0.2,0.8,0l2.9,3.6c0.2,0.2,0.2,0.5-0.1,0.8
				l-6.1,5l12.4,15.2c0.2,0.2,0.2,0.5-0.1,0.8l-3.5,2.8c-0.3,0.2-0.6,0.2-0.8,0l-12.4-15.2l-6.1,5c-0.2,0.2-0.6,0.2-0.8,0
				L143.5,111.3z"/>
			<path class="st5" d="M177.2,85.6c-0.2-0.3-0.1-0.6,0.2-0.7l18.1-11.2c0.3-0.2,0.6-0.1,0.8,0.1l2.4,3.9c0.2,0.3,0.1,0.6-0.2,0.7
				l-6.7,4.1l10.3,16.7c0.1,0.2,0.1,0.6-0.2,0.7l-3.8,2.4c-0.3,0.2-0.6,0.1-0.8-0.1L187,85.5l-6.7,4.1c-0.3,0.2-0.6,0.1-0.8-0.1
				L177.2,85.6z"/>
			<path class="st5" d="M225,59l11,22.1c0.1,0.3,0,0.6-0.3,0.7l-4,2c-0.3,0.2-0.6,0.1-0.7-0.2l-4.4-8.8l-12.1,6l4.4,8.8
				c0.1,0.3,0,0.6-0.3,0.7l-4,2c-0.3,0.2-0.6,0.1-0.7-0.2l-11-22.1c-0.1-0.3,0-0.6,0.3-0.7l4-2c0.3-0.2,0.6-0.1,0.7,0.2l4.4,8.8
				l12.1-6l-4.4-8.8c-0.1-0.3,0-0.6,0.3-0.7l4-2C224.6,58.7,224.8,58.8,225,59z"/>
			<path class="st5" d="M241.9,78.3l-7.5-20c-0.8-2.1,0.3-4,2.8-5l13.3-5c2.5-0.9,4.5-0.2,5.3,1.9l7.5,20c0.1,0.3,0,0.6-0.3,0.7
				l-4.2,1.6c-0.3,0.1-0.6,0-0.7-0.3l-3.1-8.4L244.1,68l3.1,8.4c0.1,0.3-0.1,0.6-0.3,0.7l-4.2,1.6C242.4,78.7,242.1,78.6,241.9,78.3
				z M253.4,59.6l-1.8-4.8c-0.3-0.8-1.2-1.1-2.1-0.8l-7.7,2.9c-1,0.4-1.4,1.2-1.1,2l1.8,4.8L253.4,59.6z"/>
			<path class="st5" d="M261.9,45.1c-0.1-0.3,0.1-0.6,0.4-0.6l20.6-5.6c0.3-0.1,0.6,0.1,0.7,0.4l1.2,4.4c0.1,0.3-0.1,0.6-0.4,0.6
				l-7.6,2.1l5.2,18.9c0.1,0.2-0.1,0.6-0.4,0.6l-4.3,1.2c-0.3,0.1-0.6-0.1-0.7-0.4l-5.2-18.9l-7.6,2.1c-0.3,0.1-0.6-0.1-0.7-0.4
				L261.9,45.1z"/>
			<path class="st5" d="M326.4,31.8c0.1-0.3,0.3-0.4,0.6-0.5l4.4-0.6c0.3,0,0.5,0.1,0.6,0.5l3.1,24.5c0,0.3-0.1,0.5-0.4,0.6
				l-4.5,0.6c-0.3,0-0.6-0.1-0.6-0.4l-2-16.2l-6.7,10.5l-9.1-8.6l2.1,16.2c0,0.3-0.2,0.5-0.5,0.6l-4.5,0.6c-0.3,0-0.5-0.1-0.6-0.4
				l-3.1-24.5c0-0.3,0.1-0.5,0.4-0.6l4.4-0.6c0.3,0,0.4,0.1,0.7,0.3l9.2,9.3L326.4,31.8z"/>
			<path class="st5" d="M341.5,55.2L341,33.8c-0.1-2.3,1.6-3.7,4.3-3.8l14.2-0.3c2.7-0.1,4.3,1.3,4.4,3.6l0.5,21.3
				c0,0.3-0.2,0.5-0.5,0.5l-4.4,0.1c-0.3,0-0.6-0.2-0.6-0.5l-0.2-8.9l-11.7,0.3l0.2,8.9c0,0.3-0.2,0.5-0.5,0.5l-4.5,0.1
				C341.7,55.7,341.5,55.5,341.5,55.2z M358.4,41.2l-0.1-5.1c0-0.9-0.7-1.5-1.8-1.4l-8.2,0.2c-1,0-1.7,0.6-1.7,1.5l0.1,5.1
				L358.4,41.2z"/>
			<path class="st5" d="M395.4,35.2l-0.3,4.4c0,0.3-0.2,0.5-0.6,0.4l-4.5-0.3c-0.3,0-0.5-0.3-0.5-0.5l0.1-1.6
				c0.1-0.9-0.5-1.5-1.7-1.5l-8.2-0.6c-1.1-0.1-1.8,0.4-1.8,1.3L377,49.5c-0.1,0.9,0.5,1.5,1.6,1.5l8.2,0.6c1.1,0.1,1.8-0.3,1.9-1.3
				l0.1-1.6c0-0.3,0.3-0.5,0.6-0.5l4.5,0.3c0.3,0,0.5,0.3,0.5,0.5l-0.3,4.4c-0.2,2.4-1.8,3.6-4.6,3.4l-14.3-1c-2.8-0.2-4.2-1.6-4-4
				l1.3-18.3c0.2-2.4,1.8-3.6,4.6-3.4l14.3,1C394.2,31.4,395.6,32.8,395.4,35.2z"/>
			<path class="st5" d="M428.6,37.2l-4.2,24.3c-0.1,0.3-0.3,0.5-0.6,0.4l-4.4-0.8c-0.3-0.1-0.5-0.3-0.5-0.6l1.7-9.7l-13.3-2.3
				l-1.7,9.7c-0.1,0.3-0.3,0.5-0.6,0.4l-4.4-0.8c-0.3-0.1-0.5-0.3-0.5-0.6l4.2-24.3c0.1-0.3,0.3-0.5,0.6-0.4l4.4,0.8
				c0.3,0.1,0.5,0.3,0.5,0.6l-1.7,9.7l13.3,2.3l1.7-9.7c0.1-0.3,0.3-0.5,0.6-0.4l4.4,0.8C428.4,36.7,428.6,36.9,428.6,37.2z"/>
			<path class="st5" d="M438,39l4.4,1.1c0.3,0.1,0.5,0.3,0.4,0.6l-6,23.9c-0.1,0.3-0.3,0.5-0.6,0.4l-4.4-1.1
				c-0.3-0.1-0.5-0.3-0.4-0.6l6-23.9C437.4,39.1,437.7,39,438,39z"/>
			<path class="st5" d="M451.2,42.8c0.1-0.3,0.4-0.4,0.7-0.3l3.9,1.3c0.3,0.1,0.4,0.3,0.5,0.6l7.9,20.2l5.2-15.8
				c0.1-0.3,0.4-0.4,0.7-0.3l4.3,1.4c0.3,0.1,0.4,0.4,0.3,0.7L467,74c-0.1,0.3-0.4,0.4-0.7,0.3l-3.9-1.3c-0.3-0.1-0.5-0.3-0.6-0.6
				l-8-19.8L448.9,68c-0.1,0.3-0.4,0.4-0.7,0.3l-4.3-1.4c-0.3-0.1-0.4-0.4-0.3-0.7L451.2,42.8z"/>
			<path class="st5" d="M473.5,76.6l9.9-22.6c0.1-0.3,0.4-0.4,0.7-0.3l18.4,8.1c0.3,0.1,0.4,0.4,0.3,0.7l-1.6,3.6
				c-0.1,0.3-0.4,0.4-0.7,0.3l-13.8-6.1l-2.3,5.2l10.2,4.5c0.3,0.1,0.4,0.5,0.3,0.7l-1.4,3.2c-0.1,0.3-0.4,0.4-0.7,0.2l-10.2-4.5
				l-2.3,5.1l13.8,6.1c0.3,0.1,0.4,0.4,0.3,0.7l-1.6,3.6c-0.1,0.3-0.4,0.4-0.7,0.3l-18.4-8.1C473.5,77.1,473.3,76.8,473.5,76.6z"/>
			<path class="st5" d="M514.8,97.1c-0.3,0.1-0.5,0.1-0.7,0l-3.7-2.3c-0.3-0.2-0.4-0.5-0.2-0.7l13.1-20.9c0.2-0.3,0.5-0.3,0.8-0.1
				l3.8,2.4c0.3,0.2,0.4,0.5,0.2,0.7l-8.6,13.7l11.8-3.8l1.7,12.3l8.6-13.8c0.2-0.3,0.5-0.3,0.8-0.1l3.8,2.4
				c0.3,0.2,0.4,0.5,0.2,0.7l-13.1,20.9c-0.2,0.3-0.5,0.3-0.8,0.1l-3.8-2.4c-0.2-0.1-0.3-0.3-0.3-0.7l-1.3-13L514.8,97.1z"/>
			<path class="st5" d="M539.9,109.8l11.7-15.1c1.4-1.8,3.4-2,5.7-0.2l11.3,8.8c2.2,1.7,2.6,3.7,1.2,5.6L558,123.9
				c-1.5,1.9-3.5,2-5.7,0.3l-11.3-8.8C538.8,113.7,538.4,111.7,539.9,109.8z M546.5,113.3l6.5,5.1c0.9,0.7,1.6,0.7,2.2,0l8.4-10.8
				c0.6-0.8,0.4-1.5-0.5-2.2l-6.5-5.1c-0.9-0.7-1.7-0.7-2.2,0l-8.4,10.8C545.4,111.9,545.6,112.6,546.5,113.3z"/>
			<path class="st5" d="M561,130.2l16.9-18c0.2-0.2,0.5-0.2,0.7,0l13.2,12.4c2,1.9,2.3,3.9,0.6,5.6l-4.3,4.6
				c-1.6,1.7-3.5,1.8-5.5-0.1l-0.2,0.2c1.9,1.8,1.9,3.8,0.4,5.5l-5.2,5.5c-0.2,0.2-0.5,0.2-0.8,0l-3.3-3.1c-0.3-0.2-0.3-0.5-0.1-0.8
				l4.8-5.1c0.8-0.9,0.7-2-0.3-3l-6.9-6.5l-6.2,6.5c-0.2,0.2-0.5,0.2-0.8,0l-3.3-3.1C560.8,130.7,560.8,130.4,561,130.2z
				 M581.6,130.4c1,0.9,2,1,2.8,0.2l2.1-2.2c0.6-0.7,0.5-1.5-0.3-2.2l-7.3-6.9l-4.3,4.6L581.6,130.4z"/>
			<path class="st5" d="M599,156.1l-6.3-7.2l-6.8,5.9c-0.2,0.2-0.5,0.2-0.8-0.1l-3-3.4c-0.2-0.3-0.2-0.6,0-0.8l18.6-16.2
				c0.2-0.2,0.5-0.2,0.8,0.1l3,3.4c0.2,0.3,0.2,0.6,0,0.8l-8.1,7.1l6.3,7.2c0.9,1,1.9,1.3,2.8,0.5l6.8-5.9c0.2-0.2,0.5-0.2,0.8,0.1
				l3,3.4c0.2,0.3,0.2,0.6,0,0.8l-7.2,6.3c-1.7,1.5-3.6,1.5-5.3-0.4l-0.2,0.1c1.6,1.9,1.3,3.8-0.3,5.3l-5.7,5
				c-0.2,0.2-0.5,0.2-0.8-0.1l-3-3.4c-0.2-0.3-0.2-0.6,0-0.8l5.4-4.7C600,158.2,600,157.2,599,156.1z"/>
			<path class="st5" d="M622,158.7l2.7,3.6c0.2,0.2,0.1,0.5-0.1,0.7L605,178c-0.2,0.2-0.5,0.1-0.7-0.1l-2.7-3.6
				c-0.2-0.2-0.2-0.6,0.1-0.8l19.6-14.9C621.4,158.4,621.8,158.5,622,158.7z"/>
			<path class="st5" d="M629.9,169.9c0.3-0.2,0.6-0.1,0.7,0.2l2.2,3.4c0.2,0.3,0.1,0.5,0,0.8l-6.5,20.7l13.9-9.1
				c0.3-0.2,0.6-0.1,0.7,0.2l2.5,3.8c0.2,0.3,0.1,0.6-0.2,0.7l-20.7,13.5c-0.3,0.2-0.6,0.1-0.7-0.2l-2.2-3.4
				c-0.2-0.3-0.2-0.6-0.1-0.8l6.2-20.5l-13.6,8.9c-0.3,0.2-0.6,0.1-0.7-0.2l-2.5-3.8c-0.2-0.3-0.1-0.6,0.2-0.7L629.9,169.9z"/>
			<path class="st5" d="M649.4,216.7l1-0.5c0.8-0.4,0.9-1.2,0.4-2.2l-3.8-7.4c-0.5-1-1.2-1.3-2.1-0.9l-11.5,6
				c-0.8,0.4-1,1.2-0.5,2.2l3.8,7.4c0.5,1,1.2,1.3,2.1,0.9l2.9-1.5l-2.5-4.8c-0.2-0.3-0.1-0.6,0.2-0.7l2.4-1.2
				c0.3-0.1,0.6,0,0.7,0.3l4.8,9.3c0.2,0.3,0.1,0.6-0.2,0.7l-8.2,4.2c-2.1,1.1-4,0.4-5.2-2.1l-6.6-12.7c-1.3-2.5-0.8-4.4,1.3-5.5
				l16.3-8.5c2.1-1.1,4-0.3,5.3,2.1l6.6,12.7c1.3,2.5,0.8,4.4-1.3,5.5l-3.4,1.8c-0.3,0.1-0.6,0-0.7-0.3l-2.1-4
				C649.1,217.1,649.2,216.8,649.4,216.7z"/>
			<path class="st5" d="M644.4,247.9l20.1-7.1c2.2-0.8,4,0.4,4.9,2.9l4.7,13.4c0.9,2.5,0.1,4.5-2,5.3l-20.1,7.1
				c-0.3,0.1-0.6,0-0.7-0.4l-1.5-4.2c-0.1-0.3,0-0.6,0.3-0.7l8.4-3l-3.9-11l-8.4,3c-0.3,0.1-0.6-0.1-0.7-0.4l-1.5-4.2
				C644,248.3,644.1,248,644.4,247.9z M662.9,259.7l4.8-1.7c0.8-0.3,1.2-1.1,0.8-2.1l-2.7-7.7c-0.3-1-1.1-1.4-2-1.1l-4.9,1.7
				L662.9,259.7z"/>
			<path class="st5" d="M675,288.8l1.1-0.3c0.9-0.2,1.2-0.9,0.9-2l-2-8.1c-0.3-1.1-0.9-1.6-1.8-1.3l-12.5,3.1c-0.9,0.2-1.2,0.9-1,2
				l2,8.1c0.3,1.1,0.9,1.6,1.8,1.3l3.2-0.8l-1.3-5.2c-0.1-0.3,0.1-0.6,0.4-0.7l2.6-0.6c0.3-0.1,0.6,0.1,0.6,0.4l2.5,10.2
				c0.1,0.3-0.1,0.6-0.4,0.7l-8.9,2.2c-2.3,0.6-3.9-0.6-4.6-3.3l-3.4-13.9c-0.7-2.7,0.2-4.5,2.5-5.1l17.8-4.4
				c2.3-0.6,3.9,0.6,4.6,3.3l3.4,13.9c0.7,2.7-0.2,4.5-2.5,5.1l-3.7,0.9c-0.3,0.1-0.6-0.1-0.6-0.4l-1.1-4.4
				C674.6,289.1,674.7,288.9,675,288.8z"/>
			<path class="st5" d="M660.7,305.1l21.1-3c2.3-0.3,3.9,1.2,4.2,3.8l2,14c0.4,2.7-0.8,4.5-3,4.8l-21.1,3c-0.3,0-0.5-0.1-0.6-0.5
				l-0.6-4.4c0-0.3,0.1-0.6,0.4-0.6l8.9-1.3l-1.6-11.5l-8.9,1.3c-0.3,0-0.5-0.2-0.6-0.5l-0.6-4.4
				C660.2,305.4,660.4,305.1,660.7,305.1z M676.5,320.3l5.1-0.7c0.9-0.1,1.4-0.9,1.2-1.9l-1.2-8.1c-0.1-1-0.8-1.6-1.7-1.5l-5.1,0.7
				L676.5,320.3z"/>
			<path class="st5" d="M689.4,334.1l0.3,4.5c0,0.3-0.2,0.5-0.5,0.6l-24.6,1.7c-0.3,0-0.5-0.2-0.6-0.5l-0.3-4.5
				c0-0.3,0.2-0.6,0.5-0.6l24.6-1.7C689.1,333.6,689.4,333.8,689.4,334.1z"/>
			<path class="st5" d="M690.1,348.1c0.3,0,0.5,0.2,0.5,0.5l-0.1,4.1c0,0.3-0.2,0.5-0.4,0.6l-17,13.5l16.6,0.3
				c0.3,0,0.5,0.3,0.5,0.6l-0.1,4.5c0,0.3-0.2,0.5-0.5,0.5l-24.7-0.4c-0.3,0-0.5-0.2-0.5-0.5l0.1-4.1c0-0.3,0.2-0.6,0.4-0.7
				l16.6-13.5l-16.2-0.3c-0.3,0-0.5-0.3-0.5-0.6l0.1-4.5c0-0.3,0.2-0.5,0.5-0.5L690.1,348.1z"/>
			<path class="st5" d="M682.4,396.6l1.4,5l2.7-4.5c0.2-0.3,0.4-0.4,0.8-0.2l2.5,1.9c0.3,0.3,0.3,0.5,0,0.8l-3.8,3.4l5.1,0
				c0.4,0,0.6,0.2,0.5,0.6l-0.4,3.2c-0.1,0.4-0.3,0.5-0.7,0.4l-4.9-1.4l2.8,4.3c0.2,0.3,0.1,0.6-0.2,0.8l-2.9,1.2
				c-0.4,0.1-0.6,0-0.7-0.4l-1.5-5l-2.6,4.5c-0.2,0.4-0.4,0.4-0.8,0.2l-2.5-1.9c-0.3-0.2-0.3-0.5,0-0.7l3.8-3.3l-5.2,0
				c-0.3,0-0.5-0.2-0.5-0.6l0.4-3.2c0-0.3,0.3-0.5,0.7-0.4l5,1.4l-2.8-4.3c-0.2-0.3-0.1-0.6,0.2-0.8l2.9-1.2
				C682,396.1,682.3,396.2,682.4,396.6z"/>
			<path class="st5" d="M680.5,440.6c-0.1,0.3-0.4,0.5-0.6,0.4l-19.6-5.1l-3.1,11.9c-0.1,0.3-0.4,0.5-0.6,0.4l-3.8-1
				c-0.3-0.1-0.4-0.3-0.4-0.7l4.4-16.8c0.1-0.3,0.3-0.5,0.6-0.4l23.8,6.3c0.3,0.1,0.4,0.4,0.4,0.6L680.5,440.6z"/>
			<path class="st5" d="M651,452.8l23.2,8.3c0.3,0.1,0.4,0.4,0.3,0.7l-6.8,19c-0.1,0.3-0.4,0.4-0.7,0.3l-3.7-1.3
				c-0.3-0.1-0.4-0.4-0.3-0.7l5-14.2l-5.3-1.9l-3.7,10.5c-0.1,0.3-0.4,0.4-0.7,0.4l-3.3-1.2c-0.3-0.1-0.4-0.4-0.3-0.7l3.7-10.5
				l-5.3-1.9l-5,14.2c-0.1,0.3-0.4,0.4-0.7,0.3l-3.7-1.3c-0.3-0.1-0.4-0.4-0.3-0.7l6.8-19C650.5,452.8,650.7,452.7,651,452.8z"/>
			<path class="st5" d="M664.5,487.5c0.3,0.1,0.4,0.5,0.2,0.7l-8.9,19.4c-0.1,0.3-0.4,0.4-0.7,0.3l-4.2-1.9
				c-0.3-0.1-0.4-0.4-0.2-0.7l3.3-7.1l-17.8-8.2c-0.2-0.1-0.4-0.4-0.2-0.7l1.9-4.1c0.1-0.3,0.5-0.4,0.7-0.3l17.8,8.2l3.3-7.1
				c0.1-0.3,0.4-0.4,0.7-0.3L664.5,487.5z"/>
			<path class="st5" d="M655.6,517.7l-2.4,4.4c-0.2,0.3-0.5,0.4-0.8,0.1l-7.2-6.2c-0.2-0.2-0.2-0.5-0.1-0.7l2.1-3.9
				c0.2-0.3,0.5-0.4,0.8-0.2l7.4,5.7C655.7,517.1,655.7,517.5,655.6,517.7z"/>
			<path class="st5" d="M624,513.5l3.3,2.1c0.3,0.2,0.3,0.5,0.1,0.8l-6.9,10.9c-0.6,1-0.5,1.7,0.2,2.2l2.5,1.6
				c0.7,0.4,1.5,0.2,2.1-0.7l4.9-7.7c1.5-2.4,3.4-3,5.4-1.7l6.6,4.2c2,1.3,2.3,3.2,0.8,5.6l-8.5,13.5c-0.2,0.3-0.5,0.4-0.7,0.2
				l-3.3-2.1c-0.3-0.2-0.3-0.5-0.1-0.8l6.9-11c0.6-1,0.5-1.7-0.2-2.2l-2.8-1.8c-0.7-0.4-1.4-0.1-2,0.8l-4.9,7.7
				c-1.5,2.4-3.4,3-5.4,1.7l-6.4-4c-2-1.3-2.3-3.2-0.8-5.6l8.5-13.5C623.4,513.5,623.7,513.4,624,513.5z"/>
			<path class="st5" d="M604,571.5l0.9,0.7c0.7,0.6,1.4,0.4,2.2-0.4l5.3-6.4c0.7-0.9,0.7-1.6,0-2.2l-9.9-8.3
				c-0.7-0.6-1.5-0.5-2.2,0.4l-5.3,6.4c-0.7,0.9-0.7,1.6,0,2.2l2.5,2.1l3.5-4.1c0.2-0.3,0.5-0.3,0.8-0.1l2.1,1.7
				c0.2,0.2,0.3,0.5,0,0.8l-6.7,8c-0.2,0.3-0.5,0.3-0.8,0.1l-7.1-5.9c-1.8-1.5-1.8-3.5,0-5.7l9.2-11c1.8-2.2,3.8-2.5,5.6-1
				l14.1,11.8c1.8,1.5,1.8,3.5,0,5.7l-9.2,11c-1.8,2.2-3.8,2.5-5.6,1l-2.9-2.5c-0.2-0.2-0.3-0.5,0-0.8l2.9-3.4
				C603.5,571.3,603.8,571.3,604,571.5z"/>
			<path class="st5" d="M582.3,569.3l17.4,17.5c0.2,0.2,0.2,0.5,0,0.7l-14.3,14.2c-0.2,0.2-0.5,0.2-0.7,0l-2.8-2.8
				c-0.2-0.2-0.2-0.5,0-0.7l10.7-10.6l-4-4l-7.9,7.9c-0.2,0.2-0.6,0.2-0.8,0l-2.4-2.5c-0.2-0.2-0.2-0.5,0-0.8l7.9-7.9l-4-4
				L570.8,587c-0.2,0.2-0.5,0.2-0.7,0l-2.8-2.8c-0.2-0.2-0.2-0.5,0-0.7l14.3-14.2C581.8,569.1,582.1,569.1,582.3,569.3z"/>
			<path class="st5" d="M579.5,606.4c0.2,0.2,0.1,0.6-0.1,0.8L563,620.8c-0.3,0.2-0.6,0.2-0.8,0l-2.9-3.5c-0.2-0.2-0.2-0.5,0.1-0.8
				l6-5l-12.5-15.1c-0.2-0.2-0.2-0.5,0.1-0.8l3.5-2.9c0.3-0.2,0.6-0.2,0.8,0l12.5,15.1l6-5c0.2-0.2,0.6-0.2,0.8,0L579.5,606.4z"/>
			<path class="st5" d="M546.1,632.5c0.2,0.3,0.1,0.6-0.2,0.7l-18,11.4c-0.3,0.2-0.6,0.1-0.8-0.1l-2.5-3.9c-0.2-0.3-0.1-0.6,0.2-0.7
				l6.6-4.2L521,619.2c-0.1-0.2-0.1-0.6,0.2-0.7l3.8-2.4c0.3-0.2,0.6-0.1,0.8,0.1l10.5,16.6l6.6-4.2c0.3-0.2,0.6-0.1,0.8,0.1
				L546.1,632.5z"/>
			<path class="st5" d="M498.6,659.5l-11.2-22c-0.1-0.3,0-0.6,0.3-0.7l4-2c0.3-0.2,0.6-0.1,0.7,0.2l4.5,8.8l12-6.1l-4.5-8.8
				c-0.1-0.3,0-0.6,0.3-0.7l4-2c0.3-0.2,0.6-0.1,0.7,0.2l11.2,22c0.1,0.3,0,0.6-0.3,0.7l-4,2c-0.3,0.2-0.6,0.1-0.7-0.2l-4.5-8.8
				l-12,6.1l4.5,8.8c0.1,0.3,0,0.6-0.3,0.7l-4,2C499,659.9,498.7,659.8,498.6,659.5z"/>
			<path class="st5" d="M481.4,640.4l7.7,19.9c0.8,2.1-0.2,4-2.7,5l-13.2,5.1c-2.5,1-4.5,0.3-5.4-1.9l-7.7-19.9
				c-0.1-0.3,0-0.6,0.3-0.7l4.1-1.6c0.3-0.1,0.6,0,0.7,0.3l3.2,8.3l10.9-4.2l-3.2-8.3c-0.1-0.3,0.1-0.6,0.3-0.7l4.2-1.6
				C481,640,481.3,640.1,481.4,640.4z M470.2,659.3l1.9,4.8c0.3,0.8,1.2,1.1,2.1,0.7l7.7-3c1-0.4,1.4-1.2,1.1-2l-1.9-4.8
				L470.2,659.3z"/>
			<path class="st5" d="M461.8,673.9c0.1,0.3-0.1,0.6-0.4,0.7l-20.5,5.9c-0.3,0.1-0.6-0.1-0.7-0.3l-1.3-4.4
				c-0.1-0.3,0.1-0.6,0.4-0.7l7.6-2.2l-5.4-18.9c-0.1-0.2,0.1-0.6,0.4-0.7l4.3-1.2c0.3-0.1,0.6,0.1,0.7,0.3l5.4,18.9l7.6-2.2
				c0.3-0.1,0.6,0.1,0.7,0.3L461.8,673.9z"/>
			<path class="st5" d="M397.4,687.8c-0.1,0.3-0.3,0.4-0.5,0.5l-4.4,0.6c-0.3,0-0.5-0.1-0.6-0.4l-3.3-24.4c0-0.3,0.1-0.5,0.4-0.6
				l4.5-0.6c0.3,0,0.6,0.1,0.6,0.4l2.2,16.2l6.6-10.6l9.1,8.5l-2.2-16.2c0-0.3,0.2-0.5,0.5-0.6l4.5-0.6c0.3,0,0.5,0.1,0.6,0.4
				l3.3,24.4c0,0.3-0.1,0.5-0.4,0.6l-4.4,0.6c-0.3,0-0.4-0.1-0.7-0.3l-9.3-9.2L397.4,687.8z"/>
			<path class="st5" d="M382.1,664.7l0.7,21.3c0.1,2.3-1.6,3.7-4.2,3.8l-14.2,0.5c-2.7,0.1-4.4-1.2-4.4-3.5l-0.7-21.3
				c0-0.3,0.2-0.5,0.5-0.5l4.4-0.1c0.3,0,0.6,0.2,0.6,0.5l0.3,8.9l11.7-0.4l-0.3-8.9c0-0.3,0.2-0.5,0.5-0.5l4.5-0.1
				C381.9,664.1,382.1,664.4,382.1,664.7z M365.3,678.7l0.2,5.1c0,0.9,0.7,1.4,1.8,1.4l8.2-0.3c1,0,1.7-0.7,1.7-1.5l-0.2-5.1
				L365.3,678.7z"/>
			<path class="st5" d="M328.4,685.2l0.3-4.4c0-0.3,0.2-0.5,0.6-0.4l4.5,0.3c0.3,0,0.5,0.2,0.5,0.5l-0.1,1.6
				c-0.1,0.9,0.6,1.5,1.7,1.5l8.2,0.5c1.1,0.1,1.8-0.4,1.8-1.3l0.8-12.9c0.1-0.9-0.5-1.5-1.6-1.5l-8.2-0.5c-1.1-0.1-1.8,0.4-1.9,1.3
				l-0.1,1.6c0,0.3-0.2,0.5-0.6,0.5l-4.5-0.3c-0.3,0-0.5-0.2-0.5-0.5l0.3-4.4c0.1-2.4,1.7-3.6,4.5-3.4l14.3,0.9
				c2.8,0.2,4.2,1.6,4.1,3.9l-1.1,18.3c-0.1,2.4-1.7,3.6-4.5,3.4l-14.3-0.9C329.7,688.9,328.3,687.6,328.4,685.2z"/>
			<path class="st5" d="M295.3,683.5l3.9-24.4c0-0.3,0.3-0.5,0.6-0.4l4.4,0.7c0.3,0.1,0.5,0.3,0.5,0.6l-1.6,9.7l13.3,2.1l1.6-9.7
				c0-0.3,0.3-0.5,0.6-0.4l4.4,0.7c0.3,0.1,0.5,0.3,0.5,0.6l-3.9,24.4c0,0.3-0.3,0.5-0.6,0.4l-4.4-0.7c-0.3-0.1-0.5-0.3-0.5-0.6
				l1.6-9.7l-13.3-2.1l-1.6,9.7c0,0.3-0.3,0.5-0.6,0.4l-4.4-0.7C295.4,684,295.2,683.8,295.3,683.5z"/>
			<path class="st5" d="M285.8,681.8l-4.4-1c-0.3-0.1-0.5-0.3-0.4-0.6l5.7-24c0.1-0.3,0.3-0.5,0.6-0.4l4.4,1
				c0.3,0.1,0.5,0.3,0.4,0.6l-5.7,24C286.4,681.7,286.1,681.8,285.8,681.8z"/>
			<path class="st5" d="M272.6,678.1c-0.1,0.3-0.4,0.4-0.7,0.3l-3.9-1.2c-0.3-0.1-0.4-0.3-0.5-0.6l-8.1-20.1l-5,15.9
				c-0.1,0.3-0.4,0.4-0.7,0.3l-4.3-1.4c-0.3-0.1-0.4-0.4-0.3-0.7l7.4-23.5c0.1-0.3,0.4-0.4,0.7-0.3l3.9,1.2c0.3,0.1,0.5,0.3,0.6,0.6
				l8.2,19.8l4.9-15.5c0.1-0.3,0.4-0.4,0.7-0.3l4.3,1.4c0.3,0.1,0.4,0.4,0.3,0.7L272.6,678.1z"/>
			<path class="st5" d="M250,644.6l-9.7,22.7c-0.1,0.3-0.4,0.4-0.7,0.3l-18.5-7.9c-0.3-0.1-0.4-0.4-0.3-0.7l1.5-3.6
				c0.1-0.3,0.4-0.4,0.7-0.3l13.8,5.9l2.2-5.2l-10.3-4.4c-0.3-0.1-0.4-0.5-0.3-0.7l1.4-3.2c0.1-0.3,0.4-0.4,0.7-0.3l10.3,4.4
				l2.2-5.2l-13.8-5.9c-0.3-0.1-0.4-0.4-0.3-0.7l1.5-3.6c0.1-0.3,0.4-0.4,0.7-0.3l18.5,7.9C250,644.1,250.1,644.4,250,644.6z"/>
			<path class="st5" d="M208.4,624.6c0.3-0.1,0.5-0.2,0.7,0l3.8,2.3c0.3,0.2,0.4,0.5,0.2,0.7l-12.9,21.1c-0.2,0.3-0.5,0.3-0.8,0.2
				l-3.8-2.3c-0.3-0.2-0.4-0.5-0.2-0.7l8.4-13.8l-11.7,3.9l-1.8-12.3l-8.5,13.9c-0.2,0.3-0.5,0.3-0.8,0.1l-3.8-2.3
				c-0.3-0.2-0.4-0.5-0.2-0.7l12.9-21.1c0.2-0.3,0.5-0.3,0.7-0.1l3.8,2.3c0.2,0.1,0.3,0.3,0.3,0.6l1.5,12.9L208.4,624.6z"/>
			<path class="st5" d="M183.2,612.1l-11.6,15.2c-1.4,1.9-3.4,2-5.7,0.3l-11.4-8.7c-2.2-1.7-2.6-3.7-1.2-5.5l11.6-15.2
				c1.4-1.9,3.5-2,5.7-0.3l11.4,8.7C184.2,608.2,184.6,610.2,183.2,612.1z M176.5,608.6l-6.6-5c-0.9-0.7-1.6-0.7-2.2,0.1l-8.3,10.9
				c-0.6,0.8-0.4,1.5,0.5,2.1l6.6,5c0.9,0.7,1.7,0.7,2.2,0l8.3-10.9C177.6,610.1,177.4,609.3,176.5,608.6z"/>
			<path class="st5" d="M161.8,591.9l-16.8,18.2c-0.2,0.2-0.5,0.2-0.7,0L131,597.8c-2.1-1.9-2.3-3.9-0.7-5.6l4.3-4.6
				c1.6-1.7,3.5-1.8,5.5,0l0.2-0.2c-2-1.8-2-3.8-0.4-5.5l5.1-5.5c0.2-0.2,0.5-0.2,0.8,0l3.3,3c0.3,0.2,0.3,0.5,0.1,0.8l-4.8,5.2
				c-0.8,0.9-0.7,2,0.4,3l7,6.4l6.1-6.6c0.2-0.2,0.5-0.2,0.8,0l3.3,3C162,591.4,162,591.7,161.8,591.9z M141.2,591.9
				c-1-0.9-2.1-1-2.9-0.2l-2.1,2.2c-0.6,0.7-0.5,1.5,0.3,2.2l7.4,6.8l4.2-4.6L141.2,591.9z"/>
			<path class="st5" d="M123.6,566.4l6.4,7.1l6.7-6c0.2-0.2,0.5-0.2,0.8,0.1l3,3.4c0.2,0.3,0.2,0.6,0,0.8L122,588.1
				c-0.2,0.2-0.5,0.2-0.8-0.1l-3-3.3c-0.2-0.3-0.2-0.6,0-0.8l8-7.1l-6.4-7.1c-0.9-1-1.9-1.3-2.8-0.4l-6.7,6
				c-0.2,0.2-0.5,0.2-0.8-0.1l-3-3.4c-0.2-0.3-0.2-0.6,0-0.8l7.1-6.3c1.7-1.5,3.6-1.5,5.3,0.3l0.2-0.1c-1.7-1.9-1.4-3.8,0.3-5.3
				l5.7-5.1c0.2-0.2,0.5-0.2,0.8,0.1l3,3.4c0.2,0.3,0.2,0.6,0,0.8l-5.3,4.8C122.5,564.4,122.6,565.3,123.6,566.4z"/>
			<path class="st5" d="M100.6,564l-2.8-3.6c-0.2-0.2-0.1-0.5,0.1-0.7l19.5-15.1c0.2-0.2,0.5-0.1,0.7,0.1l2.8,3.6
				c0.2,0.2,0.2,0.6-0.1,0.8l-19.5,15.1C101.1,564.4,100.8,564.3,100.6,564z"/>
			<path class="st5" d="M92.6,552.9c-0.3,0.2-0.6,0.1-0.7-0.1l-2.3-3.4c-0.2-0.3-0.1-0.5,0-0.8l6.3-20.8L82,537
				c-0.3,0.2-0.6,0.1-0.7-0.2l-2.5-3.8c-0.2-0.3-0.1-0.6,0.1-0.7l20.5-13.7c0.3-0.2,0.6-0.1,0.7,0.1l2.3,3.4
				c0.2,0.3,0.2,0.6,0.1,0.8l-6,20.5l13.5-9c0.3-0.2,0.6-0.1,0.7,0.2l2.5,3.8c0.2,0.3,0.1,0.6-0.1,0.7L92.6,552.9z"/>
			<path class="st5" d="M72.5,506.3l-1,0.5c-0.8,0.4-0.9,1.2-0.4,2.2l3.9,7.3c0.5,1,1.2,1.3,2.1,0.9l11.4-6.1c0.8-0.4,1-1.2,0.4-2.2
				l-3.9-7.3c-0.5-1-1.2-1.3-2.1-0.9l-2.9,1.5l2.5,4.8c0.2,0.3,0.1,0.6-0.2,0.7l-2.4,1.3c-0.3,0.1-0.6,0.1-0.7-0.3l-4.9-9.2
				c-0.2-0.3-0.1-0.6,0.2-0.7l8.1-4.3c2.1-1.1,4-0.4,5.3,2.1l6.7,12.7c1.3,2.5,0.9,4.4-1.2,5.5l-16.2,8.6c-2.1,1.1-4,0.4-5.3-2.1
				l-6.7-12.7c-1.3-2.5-0.9-4.4,1.2-5.5l3.4-1.8c0.3-0.1,0.6-0.1,0.7,0.3l2.1,4C72.9,505.9,72.8,506.2,72.5,506.3z"/>
			<path class="st5" d="M77.2,475.1l-20.1,7.3c-2.2,0.8-4-0.3-4.9-2.8l-4.8-13.3c-0.9-2.5-0.2-4.5,2-5.3l20.1-7.3
				c0.3-0.1,0.6,0,0.7,0.4l1.5,4.2c0.1,0.3,0,0.6-0.3,0.7l-8.4,3.1l4,11l8.4-3.1c0.3-0.1,0.6,0.1,0.7,0.4l1.5,4.2
				C77.6,474.7,77.5,475,77.2,475.1z M58.6,463.5l-4.8,1.8c-0.8,0.3-1.1,1.2-0.8,2.1l2.8,7.7c0.4,1,1.2,1.4,2,1.1l4.8-1.8
				L58.6,463.5z"/>
			<path class="st5" d="M46.2,434.5l-1.1,0.3c-0.9,0.2-1.2,0.9-0.9,2l2.1,8c0.3,1.1,0.9,1.6,1.8,1.3l12.5-3.2c0.9-0.2,1.2-0.9,1-2
				l-2.1-8c-0.3-1.1-0.9-1.6-1.8-1.3l-3.2,0.8l1.3,5.2c0.1,0.3-0.1,0.6-0.4,0.7l-2.6,0.7c-0.3,0.1-0.6-0.1-0.6-0.4l-2.6-10.1
				c-0.1-0.3,0.1-0.6,0.4-0.7l8.9-2.3c2.3-0.6,3.9,0.6,4.6,3.3l3.6,13.9c0.7,2.7-0.2,4.5-2.5,5.1l-17.8,4.5
				c-2.3,0.6-3.9-0.6-4.6-3.3l-3.6-13.9c-0.7-2.7,0.2-4.5,2.5-5.1l3.7-1c0.3-0.1,0.6,0.1,0.6,0.4l1.1,4.4
				C46.6,434.2,46.5,434.4,46.2,434.5z"/>
			<path class="st5" d="M60.3,418.1l-21.1,3.2c-2.3,0.3-3.9-1.1-4.3-3.8l-2.1-14c-0.4-2.6,0.7-4.5,3-4.8l21.1-3.2
				c0.3,0,0.5,0.1,0.6,0.5l0.7,4.4c0.1,0.3-0.1,0.6-0.4,0.6l-8.8,1.4l1.8,11.5l8.8-1.4c0.3,0,0.6,0.2,0.6,0.5l0.7,4.4
				C60.8,417.8,60.6,418.1,60.3,418.1z M44.3,403.1l-5.1,0.8c-0.9,0.1-1.3,0.9-1.2,1.9l1.2,8.1c0.2,1,0.9,1.6,1.7,1.5l5.1-0.8
				L44.3,403.1z"/>
			<path class="st5" d="M31.3,389.3l-0.4-4.5c0-0.3,0.2-0.5,0.5-0.6l24.6-2c0.3,0,0.5,0.2,0.6,0.5l0.4,4.5c0,0.3-0.2,0.6-0.5,0.6
				l-24.6,2C31.6,389.9,31.3,389.6,31.3,389.3z"/>
			<path class="st5" d="M30.8,375.7c-0.3,0-0.5-0.2-0.5-0.5l-0.1-4.1c0-0.3,0.2-0.5,0.4-0.7l16.5-14.1l-16.6,0.3
				c-0.3,0-0.5-0.3-0.5-0.6l-0.1-4.5c0-0.3,0.2-0.5,0.5-0.5l24.7-0.4c0.3,0,0.5,0.2,0.5,0.5l0.1,4.1c0,0.3-0.2,0.6-0.4,0.7l-16.1,14
				l16.2-0.3c0.3,0,0.5,0.2,0.5,0.6l0.1,4.5c0,0.3-0.2,0.5-0.5,0.5L30.8,375.7z"/>
			<path class="st5" d="M37.7,326.9l-1.5-5l-2.7,4.5c-0.2,0.3-0.4,0.4-0.8,0.2l-2.5-1.9c-0.3-0.3-0.3-0.5,0-0.8l3.8-3.5l-5.1,0.1
				c-0.4,0-0.6-0.2-0.5-0.5l0.4-3.2c0-0.4,0.3-0.5,0.7-0.4l4.9,1.4l-2.8-4.2c-0.2-0.3-0.1-0.6,0.2-0.8l2.9-1.2
				c0.4-0.1,0.6,0,0.7,0.3l1.5,5l2.6-4.5c0.2-0.4,0.4-0.4,0.8-0.2l2.6,1.9c0.3,0.2,0.3,0.5,0,0.7l-3.8,3.4l5.2,0
				c0.3,0,0.5,0.2,0.5,0.6l-0.4,3.2c0,0.3-0.3,0.5-0.7,0.4l-5-1.4l2.9,4.3c0.2,0.3,0.1,0.6-0.2,0.8l-2.9,1.2
				C38.1,327.3,37.8,327.2,37.7,326.9z"/>
		</g>
	</g>
</g>
<g id="Layer_4">
</g>
</svg>
