<?xml version="1.0" encoding="utf-8"?>
<!-- Generator: Adobe Illustrator 28.0.0, SVG Export Plug-In . SVG Version: 6.00 Build 0)  -->
<svg version="1.1" xmlns="http://www.w3.org/2000/svg" xmlns:xlink="http://www.w3.org/1999/xlink" x="0px" y="0px"
	 viewBox="0 0 720 720" style="enable-background:new 0 0 720 720;" xml:space="preserve">
<style type="text/css">
	.st0{display:none;}
	.st1{display:inline;opacity:0.71;fill:#ED1C24;}
	.st2{display:inline;fill:#ED1C24;}
	.st3{display:inline;fill:#8B181B;}
	.st4{fill:#FFFFFF;}
	.st5{fill:#072B49;}
</style>
<g id="Layer_1" class="st0">
	
		<image style="display:inline;overflow:visible;" width="700" height="700" xlink:href="1DC5025113C97188.jpg"  transform="matrix(1 0 0 1 9.8047 10.3609)">
	</image>
</g>
<g id="Layer_3" class="st0">
	<rect x="159.4" y="103.3" class="st1" width="414.2" height="428.9"/>
	<rect x="150.3" y="544.1" class="st2" width="432.4" height="84.9"/>
	<polygon class="st3" points="582.7,544.1 150.3,544.1 159.3,509.3 573.7,509.3 	"/>
</g>
<g id="Layer_2">
	<path class="st5" d="M410.3,349.1l-7.2,1.9c-0.1,0-0.3,0-0.4,0.1c-0.1,0-0.2,0-0.3,0.1l-8.2,2.2c-1.3,0.3-2.3,1.3-2.6,2.6l-3,11.2
		l-0.8,2.9l-0.8,2.9l-2.4,8.9c-0.3,1.3-1.3,2.3-2.6,2.6l-8.9,2.4l-2.9,0.8l-2.9,0.8l-13.2,3.5l-2.9,0.8h0l-2.1-2.1l-20.4-20.4
		c-0.9-0.9-1.3-2.3-0.9-3.5l7.7-28.7c0.3-1.3,1.3-2.3,2.6-2.6l25.8-6.9c1.3-0.3,2.3-1.3,2.6-2.6l2.2-8.2c0-0.2,0.1-0.3,0.1-0.5
		l2-7.4c0.8-3-2-5.8-5-5l-44.4,11.9c-1.4,0.4-2.5,1.5-2.9,2.9L304.4,372c-0.4,1.4,0,2.9,1.1,3.9l6.4,6.4c0.7,0.7,0.7,2,0,2.7l-80,80
		l0,0L125.4,571.4c-0.7,0.7-2,0.7-2.7,0l-5.4-5.4l-1.6-1.6c-0.7-0.7-1.8-0.7-2.2-0.7c-0.1,0-0.2,0-0.3,0.1l-5.3,1.4
		c-0.1,0-0.2,0-0.3,0.1l-48.7,13.1c-0.4,0.1-0.7,0.3-1,0.6c-0.3,0.3-0.5,0.6-0.6,1l-7.7,28.8l-1,3.6l-1,3.6l-3.4,12.8
		c0,0.1,0,0.2-0.1,0.3l-1.2,4.6c-0.4,1.4,0,2.9,1.1,3.9L81.5,675l1.6,1.6c0.7,0.7,1.8,0.7,2.2,0.7c0.1,0,0.2,0,0.3-0.1l5.3-1.4
		c0.1,0,0.2,0,0.3-0.1l48.7-13.1c0.4-0.1,0.7-0.3,1-0.6c0.3-0.3,0.5-0.6,0.6-1l7.7-28.8l1-3.6l1-3.6l3.4-12.8c0-0.1,0-0.2,0.1-0.3
		l1.2-4.6c0.4-1.4,0-2.9-1.1-3.9l-7.3-7.3c-0.7-0.7-0.7-2,0-2.7l80.2-80.2v0l106.2-106.2c0.7-0.7,2-0.7,2.7,0l6.4,6.4l2.6,2.6v0
		l9.2-2.5l10.8-2.9l3.6-1l3.6-1l27.7-7.4c1.4-0.4,2.5-1.5,2.9-2.9l7.4-27.7l1-3.6l1-3.6l2.6-9.6
		C416.1,351.1,413.3,348.3,410.3,349.1z M132.4,613l-8,29.8c-0.1,0.3-0.2,0.5-0.4,0.8c-0.2,0.2-0.5,0.4-0.8,0.4l-10,2.7l-2.9,0.8
		l-2.9,0.8l-13.2,3.5l-1.6,0.4c-1.3,0.3-2.3-0.7-2.3-0.7l-1.1-1.1L68.9,630c-0.9-0.9-1.3-2.3-0.9-3.5l8-29.8
		c0.1-0.3,0.2-0.5,0.4-0.8c0.2-0.2,0.5-0.4,0.8-0.4l10-2.7l2.9-0.8l2.9-0.8l13.2-3.5l1.4-0.4c0,0,1.4-0.5,2.5,0.6l1.1,1.1l20.4,20.4
		C132.4,610.4,132.8,611.7,132.4,613z M316.9,391.1l-78.6,78c0,0-0.1-0.1-0.1-0.2L130.4,576.1c-0.7,0.7-1.8,0.7-2.5-0.1
		c-0.6-0.7-0.6-1.7,0.1-2.3l106.4-106c0,0,0.1,0.1,0.1,0.1l79.7-79.3c0.7-0.7,1.7-0.7,2.4,0l0.1,0.1
		C317.5,389.4,317.5,390.4,316.9,391.1z"/>
</g>
<g id="Layer_4">
</g>
</svg>
